# Blender 4.2.2 LTS
# www.blender.org
o homer_h_merged
v -0.010514 0.168397 0.022364
v -0.049458 0.169897 0.151623
v -0.049679 0.162336 0.151785
v -0.078632 0.173697 -0.121289
v -0.078632 0.173697 -0.121289
v -0.078922 0.164875 -0.120624
v -0.082027 0.297694 -0.126441
v -0.123532 0.204413 0.042802
v -0.174439 0.177060 0.151688
v -0.174677 0.167981 0.151957
v -0.194072 0.175350 -0.119135
v -0.194072 0.175350 -0.119135
v -0.194340 0.167034 -0.118412
v -0.194340 0.167034 -0.118412
v -0.197439 0.297753 -0.126494
v -0.251807 0.174889 0.023873
v -0.252091 0.163607 0.024232
v -0.252091 0.163607 0.024232
v -0.028297 0.015600 0.004528
v -0.028297 0.015600 0.004528
v -0.028297 0.015600 0.004528
v -0.030310 -0.000700 0.006680
v -0.030310 -0.000700 0.006680
v -0.030310 -0.000700 0.006680
v -0.030310 -0.000700 0.006680
v -0.031566 -0.000975 0.129695
v -0.031566 -0.000975 0.129695
v -0.041783 0.108168 0.003588
v -0.055187 0.062003 -0.103406
v -0.059179 -0.000341 -0.133215
v -0.059179 -0.000341 -0.133215
v -0.071043 0.112573 -0.082787
v -0.093685 -0.000975 0.163271
v -0.093685 -0.000975 0.163271
v -0.093685 -0.000975 0.163271
v -0.103208 0.098454 -0.159733
v -0.158159 0.120092 -0.085534
v -0.161537 -0.000975 0.156126
v -0.161537 -0.000975 0.156126
v -0.175640 0.105056 -0.154059
v -0.219574 -0.000700 0.054983
v -0.219574 -0.000700 0.054983
v -0.219574 -0.000700 0.054983
v -0.219574 -0.000700 0.054983
v -0.222989 0.015597 0.055488
v -0.222989 0.015597 0.055488
v -0.222989 0.015597 0.055488
v -0.229767 0.107729 0.042693
v -0.230436 0.113210 -0.049640
v -0.249378 0.098454 -0.123134
v -0.254516 0.110384 0.024234
v -0.273693 0.062003 -0.075377
v -0.275284 -0.000341 -0.075905
v -0.275284 -0.000341 -0.075905
v -0.115561 0.056620 -0.244697
v -0.119295 -0.000004 -0.263288
v -0.119295 -0.000004 -0.263288
v -0.197131 0.054622 -0.238265
v -0.201576 -0.000126 -0.255683
v -0.201576 -0.000126 -0.255683
v -0.273011 0.056620 -0.196368
v -0.273535 -0.000004 -0.215779
v -0.273535 -0.000004 -0.215779
v 0.252091 0.163607 0.024232
v 0.252091 0.163607 0.024232
v 0.251807 0.174889 0.023873
v 0.197439 0.297753 -0.126494
v 0.194340 0.167034 -0.118412
v 0.194340 0.167034 -0.118412
v 0.194072 0.175350 -0.119135
v 0.194072 0.175350 -0.119135
v 0.174676 0.167981 0.151957
v 0.174439 0.177060 0.151688
v 0.123532 0.204413 0.042802
v 0.082027 0.297694 -0.126441
v 0.078922 0.164875 -0.120624
v 0.078632 0.173697 -0.121289
v 0.078632 0.173697 -0.121289
v 0.049679 0.162336 0.151785
v 0.049458 0.169897 0.151623
v 0.010514 0.168397 0.022364
v 0.275284 -0.000341 -0.075905
v 0.275284 -0.000341 -0.075905
v 0.273693 0.062003 -0.075377
v 0.254516 0.110384 0.024234
v 0.249378 0.098454 -0.123134
v 0.230436 0.113210 -0.049640
v 0.229767 0.107729 0.042693
v 0.222989 0.015597 0.055488
v 0.222989 0.015597 0.055488
v 0.222989 0.015597 0.055488
v 0.219574 -0.000700 0.054983
v 0.219574 -0.000700 0.054983
v 0.219574 -0.000700 0.054983
v 0.219574 -0.000700 0.054983
v 0.175639 0.105056 -0.154059
v 0.161537 -0.000975 0.156126
v 0.161537 -0.000975 0.156126
v 0.158159 0.120091 -0.085534
v 0.103208 0.098454 -0.159733
v 0.093685 -0.000975 0.163271
v 0.093685 -0.000975 0.163271
v 0.093685 -0.000975 0.163271
v 0.093685 -0.000975 0.163271
v 0.071043 0.112573 -0.082787
v 0.059179 -0.000341 -0.133215
v 0.059179 -0.000341 -0.133215
v 0.055187 0.062003 -0.103406
v 0.039825 0.109986 0.116496
v 0.031566 -0.000975 0.129695
v 0.031566 -0.000975 0.129695
v 0.030310 -0.000700 0.006680
v 0.030310 -0.000700 0.006680
v 0.030310 -0.000700 0.006680
v 0.030310 -0.000700 0.006680
v 0.028297 0.015600 0.004528
v 0.028297 0.015600 0.004528
v 0.028297 0.015600 0.004528
v 0.273535 -0.000004 -0.215779
v 0.273535 -0.000004 -0.215779
v 0.273011 0.056620 -0.196368
v 0.201576 -0.000126 -0.255683
v 0.201576 -0.000126 -0.255683
v 0.197130 0.054622 -0.238265
v 0.119295 -0.000004 -0.263288
v 0.119295 -0.000004 -0.263288
v 0.115561 0.056620 -0.244697
v 0.210004 0.976444 0.017582
v 0.148546 1.152926 0.034408
v 0.120892 1.132285 -0.105348
v 0.114382 1.174457 0.019452
v 0.085656 1.183090 0.102837
v 0.076162 1.145948 -0.053354
v -0.000000 1.105654 -0.098436
v -0.000000 1.194791 0.147199
v -0.076162 1.145948 -0.053354
v -0.085656 1.183090 0.102837
v -0.114382 1.174457 0.019452
v -0.120892 1.132285 -0.105348
v -0.148546 1.152926 0.034408
v -0.210004 0.976444 0.017582
v 0.109295 1.246211 0.001712
v 0.080095 1.251281 0.085026
v 0.072069 1.225633 -0.064324
v -0.000000 1.200742 -0.106118
v -0.000000 1.264407 0.127430
v -0.072069 1.225633 -0.064324
v -0.080095 1.251281 0.085026
v -0.109295 1.246211 0.001712
v 0.173120 1.516186 0.031434
v 0.173120 1.516186 0.031434
v 0.172622 1.503578 0.029547
v 0.172622 1.503578 0.029547
v 0.171831 1.518526 -0.038665
v 0.171831 1.523660 -0.044278
v 0.160857 1.466870 0.061066
v 0.159173 1.579499 0.006262
v 0.159173 1.579499 0.006262
v 0.158356 1.495707 0.050615
v 0.157955 1.566051 0.003512
v 0.157955 1.566051 0.003512
v 0.155520 1.552339 -0.060458
v 0.152433 1.597797 -0.057994
v 0.149284 1.617823 -0.041703
v 0.147457 1.515431 -0.078254
v 0.145311 1.593244 0.010316
v 0.144106 1.532938 0.085067
v 0.144106 1.532938 0.085067
v 0.144038 1.545639 0.007234
v 0.143850 1.439414 0.049947
v 0.143850 1.439414 0.049947
v 0.143074 1.519012 0.080679
v 0.143074 1.519012 0.080679
v 0.140282 1.477235 0.060690
v 0.140257 1.506418 0.009806
v 0.139603 1.558609 -0.071056
v 0.138807 1.671390 0.062681
v 0.137545 1.430427 0.033894
v 0.137545 1.430427 0.033894
v 0.135446 1.467053 -0.000216
v 0.134463 1.475571 -0.032851
v 0.134088 1.637928 -0.037161
v 0.133641 1.527578 -0.088255
v 0.132903 1.711253 0.006160
v 0.132828 1.489745 -0.087159
v 0.132696 1.377859 -0.100301
v 0.131647 1.449550 0.100913
v 0.131589 1.395368 -0.103943
v 0.131585 1.437198 0.097944
v 0.129845 1.596812 -0.080054
v 0.129272 1.712260 0.091820
v 0.128500 1.358348 -0.111670
v 0.128443 1.412858 -0.090442
v 0.128443 1.412858 -0.090442
v 0.128233 1.376307 -0.119477
v 0.127801 1.627798 -0.102980
v 0.127341 1.437495 0.050276
v 0.127070 1.434781 0.008897
v 0.125703 1.493055 0.073427
v 0.125570 1.377538 -0.075980
v 0.125570 1.377538 -0.075980
v 0.124957 1.536788 0.101532
v 0.123745 1.367866 -0.124365
v 0.123727 1.358162 -0.114281
v 0.123727 1.358162 -0.114281
v 0.123727 1.358162 -0.114281
v 0.123187 1.353103 -0.019328
v 0.122132 1.644012 -0.095399
v 0.119154 1.609473 0.132181
v 0.118416 1.746917 0.037925
v 0.115640 1.327291 -0.076487
v 0.113203 1.495672 -0.113867
v 0.112094 1.408877 -0.162180
v 0.111744 1.371106 -0.175054
v 0.111635 1.350194 -0.132850
v 0.111635 1.350194 -0.132850
v 0.111635 1.350194 -0.132850
v 0.110614 1.434312 -0.143924
v 0.110545 1.655905 -0.079743
v 0.109853 1.681352 0.157030
v 0.109425 1.362289 -0.177877
v 0.108921 1.447450 -0.118067
v 0.108921 1.447450 -0.118067
v 0.105965 1.753320 0.109840
v 0.104407 1.736040 -0.040033
v 0.103082 1.366554 0.048698
v 0.100448 1.764179 0.054352
v 0.097428 1.345086 -0.173349
v 0.097428 1.345086 -0.173349
v 0.095937 1.483987 0.138886
v 0.095831 1.494268 0.141082
v 0.095519 1.768650 -0.000540
v 0.093014 1.742034 0.096497
v 0.092099 1.727616 0.159168
v 0.091536 1.743688 0.089890
v 0.089939 1.742372 0.096909
v 0.083543 1.635274 -0.133358
v 0.082326 1.616708 -0.109715
v 0.080262 1.654831 -0.125175
v 0.077190 1.787033 0.121798
v 0.076437 1.467592 -0.145085
v 0.076437 1.467592 -0.145085
v 0.075592 1.788986 0.115358
v 0.074579 1.783895 0.120209
v 0.073642 1.773731 0.029098
v 0.072164 1.775384 0.022605
v 0.071147 1.510381 0.143785
v 0.070628 1.661354 -0.106873
v 0.070567 1.774068 0.027026
v 0.067296 1.424064 0.111654
v 0.067091 1.419215 -0.213860
v 0.066745 1.381353 -0.222779
v 0.066343 1.366981 -0.233299
v 0.066318 1.663216 0.196369
v 0.066091 1.590897 0.177327
v 0.065066 1.368611 0.092242
v 0.060741 1.347620 -0.226403
v 0.060741 1.347620 -0.226403
v 0.060364 1.454349 -0.195024
v 0.058792 1.777397 0.110259
v 0.057819 1.818729 0.054398
v 0.056221 1.820683 0.048074
v 0.055834 1.790265 0.047152
v 0.055207 1.815591 0.050326
v 0.054450 1.714550 0.188847
v 0.054067 1.744733 -0.065836
v 0.053554 1.747884 0.162540
v 0.052345 1.779277 -0.022887
v 0.049954 1.414925 0.145374
v 0.049923 1.405314 0.144703
v 0.047170 1.802168 0.134693
v 0.045293 1.804117 0.128342
v 0.044845 1.798064 0.132513
v 0.042346 1.520357 -0.221715
v 0.039933 1.479630 -0.173337
v 0.039933 1.479630 -0.173337
v 0.038773 1.522424 -0.123431
v 0.037217 1.510101 -0.152623
v 0.035610 1.494787 -0.221078
v 0.033219 1.627723 -0.132996
v 0.032536 1.645299 -0.127201
v 0.031963 1.541622 -0.218440
v 0.029690 1.655105 -0.117455
v 0.029035 1.614520 -0.117056
v 0.027798 1.833863 0.067293
v 0.025921 1.835813 0.061057
v 0.025473 1.830921 0.062630
v 0.021704 1.744733 -0.065836
v 0.020857 1.537502 -0.148569
v 0.017918 1.631148 -0.125056
v 0.016268 1.643374 -0.121494
v 0.012932 1.804694 0.147875
v 0.010895 1.800786 0.145105
v 0.010778 1.806640 0.141613
v -0.000000 1.352911 -0.249948
v -0.000000 1.352911 -0.249948
v -0.000000 1.358753 -0.078169
v -0.000000 1.358753 -0.078169
v -0.000000 1.364933 0.122722
v -0.000000 1.371590 -0.258702
v -0.000000 1.386929 -0.249458
v -0.000000 1.422857 0.134061
v -0.000000 1.424867 -0.239915
v -0.000000 1.458409 -0.224488
v -0.000000 1.462716 0.162776
v -0.000000 1.474679 0.162088
v -0.000000 1.481338 -0.193558
v -0.000000 1.481338 -0.193558
v -0.000000 1.488382 -0.228445
v -0.000000 1.496808 -0.238651
v -0.000000 1.502715 0.164255
v -0.000000 1.520804 -0.242895
v -0.000000 1.542290 -0.234949
v -0.000000 1.548394 -0.151086
v -0.000000 1.549494 -0.220355
v -0.000000 1.580872 -0.133641
v -0.000000 1.581427 0.194183
v -0.000000 1.622110 -0.123203
v -0.000000 1.636357 0.211926
v -0.000000 1.638483 -0.122297
v -0.000000 1.646700 -0.118961
v -0.000000 1.717646 0.191260
v -0.000000 1.754835 0.162127
v -0.000000 1.785220 -0.028361
v -0.000000 1.785967 0.107526
v -0.000000 1.799161 0.036268
v -0.006439 1.836390 0.080476
v -0.008476 1.833642 0.075222
v -0.008595 1.838336 0.074329
v -0.015208 1.643480 -0.121127
v -0.018692 1.631246 -0.125055
v -0.020857 1.537502 -0.148569
v -0.023586 1.744733 -0.065836
v -0.024597 1.782684 0.150198
v -0.026318 1.784902 0.155381
v -0.027613 1.786869 0.148836
v -0.029035 1.614520 -0.117056
v -0.029690 1.655105 -0.117455
v -0.031963 1.541622 -0.218440
v -0.032536 1.645299 -0.127201
v -0.033219 1.627723 -0.132996
v -0.035610 1.494787 -0.221078
v -0.037217 1.510101 -0.152623
v -0.038773 1.522424 -0.123431
v -0.039934 1.479630 -0.173337
v -0.039934 1.479630 -0.173337
v -0.042346 1.520357 -0.221715
v -0.043969 1.814380 0.080315
v -0.045689 1.816598 0.087982
v -0.046985 1.818565 0.081551
v -0.049923 1.405314 0.144703
v -0.049954 1.414925 0.145374
v -0.052345 1.779277 -0.022887
v -0.053554 1.747884 0.162540
v -0.054067 1.744733 -0.065836
v -0.054419 1.730504 0.139824
v -0.054419 1.730504 0.139824
v -0.054450 1.714550 0.188847
v -0.055834 1.790265 0.047152
v -0.057117 1.729976 0.144484
v -0.057117 1.729976 0.144484
v -0.058594 1.731630 0.137877
v -0.058594 1.731630 0.137877
v -0.058792 1.777397 0.110259
v -0.060364 1.454349 -0.195024
v -0.060741 1.347620 -0.226403
v -0.060741 1.347620 -0.226403
v -0.065066 1.368611 0.092242
v -0.066091 1.590897 0.177327
v -0.066318 1.663216 0.196369
v -0.066343 1.366981 -0.233299
v -0.066746 1.381353 -0.222779
v -0.067091 1.419215 -0.213859
v -0.067296 1.424064 0.111654
v -0.070628 1.661354 -0.106873
v -0.071147 1.510381 0.143785
v -0.073791 1.762200 0.069941
v -0.073791 1.762200 0.069941
v -0.076437 1.467592 -0.145085
v -0.076437 1.467592 -0.145085
v -0.076489 1.761672 0.077085
v -0.076489 1.761672 0.077085
v -0.077967 1.763325 0.070593
v -0.077967 1.763325 0.070593
v -0.080262 1.654831 -0.125175
v -0.082326 1.616708 -0.109715
v -0.083543 1.635274 -0.133358
v -0.092099 1.727616 0.159168
v -0.095520 1.768650 -0.000540
v -0.095831 1.494268 0.141082
v -0.095937 1.483884 0.138886
v -0.097428 1.345086 -0.173349
v -0.097428 1.345086 -0.173349
v -0.100448 1.764179 0.054352
v -0.103082 1.366554 0.048698
v -0.104407 1.736040 -0.040033
v -0.105965 1.753320 0.109840
v -0.108921 1.447450 -0.118067
v -0.108921 1.447450 -0.118067
v -0.109425 1.362289 -0.177877
v -0.109853 1.681352 0.157030
v -0.110545 1.655905 -0.079743
v -0.110614 1.434312 -0.143924
v -0.111635 1.350194 -0.132850
v -0.111635 1.350194 -0.132850
v -0.111635 1.350194 -0.132850
v -0.111745 1.371106 -0.175054
v -0.112094 1.408877 -0.162180
v -0.113203 1.495672 -0.113867
v -0.115640 1.327291 -0.076487
v -0.118416 1.746917 0.037925
v -0.119154 1.609473 0.132181
v -0.122132 1.644012 -0.095399
v -0.123187 1.353103 -0.019328
v -0.123727 1.358162 -0.114281
v -0.123727 1.358162 -0.114281
v -0.123727 1.358162 -0.114281
v -0.123745 1.367866 -0.124365
v -0.124957 1.536788 0.101532
v -0.125570 1.377538 -0.075980
v -0.125570 1.377538 -0.075980
v -0.125703 1.493055 0.073427
v -0.127070 1.434781 0.008897
v -0.127341 1.437495 0.050276
v -0.127801 1.627798 -0.102980
v -0.128233 1.376307 -0.119477
v -0.128443 1.412858 -0.090442
v -0.128443 1.412858 -0.090442
v -0.128500 1.358348 -0.111670
v -0.129272 1.712260 0.091820
v -0.129845 1.596812 -0.080054
v -0.131585 1.437198 0.097944
v -0.131589 1.395368 -0.103943
v -0.131647 1.449550 0.100913
v -0.132696 1.377859 -0.100301
v -0.132828 1.489745 -0.087159
v -0.132903 1.711253 0.006160
v -0.133641 1.527578 -0.088255
v -0.134088 1.637928 -0.037161
v -0.134463 1.475571 -0.032851
v -0.135446 1.467053 -0.000216
v -0.137545 1.430427 0.033894
v -0.137545 1.430427 0.033894
v -0.138807 1.671390 0.062681
v -0.139603 1.558609 -0.071056
v -0.140257 1.506418 0.009806
v -0.140282 1.477235 0.060690
v -0.143074 1.519012 0.080679
v -0.143074 1.519012 0.080679
v -0.143850 1.439414 0.049947
v -0.143850 1.439414 0.049947
v -0.144038 1.545639 0.007234
v -0.144106 1.532938 0.085067
v -0.144106 1.532938 0.085067
v -0.145312 1.593244 0.010316
v -0.147457 1.515431 -0.078254
v -0.149284 1.617823 -0.041703
v -0.152433 1.597797 -0.057994
v -0.155520 1.552339 -0.060458
v -0.157955 1.566051 0.003512
v -0.157955 1.566051 0.003512
v -0.158356 1.495707 0.050615
v -0.159173 1.579499 0.006262
v -0.159173 1.579499 0.006262
v -0.160857 1.466870 0.061066
v -0.171831 1.518526 -0.038665
v -0.171831 1.523660 -0.044278
v -0.172622 1.503578 0.029547
v -0.172622 1.503578 0.029547
v -0.173120 1.516186 0.031434
v -0.173120 1.516186 0.031434
v 0.106447 1.350896 -0.129444
v 0.106447 1.350896 -0.129444
v 0.096410 1.311061 -0.131607
v 0.095434 1.325741 -0.148385
v 0.088526 1.346043 -0.150241
v 0.088526 1.346043 -0.150241
v 0.056741 1.280497 -0.148323
v 0.055999 1.306551 -0.161931
v 0.054887 1.317856 -0.185291
v 0.048628 1.340553 -0.185203
v 0.048628 1.340553 -0.185203
v -0.000000 1.278352 -0.151212
v -0.000000 1.305153 -0.171932
v -0.000000 1.316831 -0.195776
v -0.000000 1.338300 -0.196799
v -0.000000 1.338300 -0.196799
v -0.048628 1.340553 -0.185203
v -0.048628 1.340553 -0.185203
v -0.054888 1.317856 -0.185291
v -0.055999 1.306551 -0.161931
v -0.056741 1.280497 -0.148323
v -0.088526 1.346043 -0.150241
v -0.088526 1.346043 -0.150241
v -0.095434 1.325741 -0.148385
v -0.096410 1.311061 -0.131607
v -0.106447 1.350896 -0.129444
v -0.106447 1.350896 -0.129444
v -0.102124 1.068550 0.042610
v -0.106967 1.070703 0.108502
v -0.107777 1.017015 0.045951
v -0.108253 1.015668 0.101555
v -0.116514 1.117552 0.044793
v -0.123537 1.018096 -0.003129
v -0.124235 1.072738 -0.009168
v -0.145268 1.071280 0.144362
v -0.148523 1.138112 0.127321
v -0.151523 1.004340 0.127233
v -0.163230 1.157997 0.055294
v -0.167675 0.984025 0.058053
v -0.174191 1.133583 -0.008819
v -0.176697 1.000764 -0.005715
v -0.180064 1.078047 -0.036013
v -0.250199 1.071269 0.188928
v -0.253407 1.153872 0.159654
v -0.256616 1.072897 0.165371
v -0.257439 0.991495 0.165887
v -0.260001 1.127683 0.150317
v -0.263729 1.006073 0.153217
v -0.272863 1.172756 0.070541
v -0.276334 1.153416 0.069610
v -0.276873 0.974216 0.075006
v -0.278118 0.992884 0.077035
v -0.285898 1.006390 0.027540
v -0.287885 1.147553 -0.001355
v -0.287889 1.134971 0.010971
v -0.291044 0.991720 0.001962
v -0.293906 1.070447 -0.008135
v -0.297017 1.067656 -0.032455
v -0.755140 1.014408 -0.049815
v -0.767120 1.058337 -0.053396
v -0.771573 1.008361 0.044937
v -0.771796 1.013880 -0.016213
v -0.773141 1.016271 -0.006200
v -0.778898 1.000387 0.068700
v -0.785523 1.057122 -0.020198
v -0.786496 1.009664 0.026620
v -0.791270 1.057936 -0.006196
v -0.793585 1.047885 0.043632
v -0.798951 1.037316 0.072672
v -0.804564 1.051342 0.029289
v 0.297017 1.067656 -0.032455
v 0.293906 1.070447 -0.008135
v 0.291044 0.991720 0.001962
v 0.287889 1.134971 0.010971
v 0.287885 1.147553 -0.001355
v 0.285898 1.006390 0.027540
v 0.278119 0.992884 0.077035
v 0.276873 0.974216 0.075006
v 0.276334 1.153416 0.069610
v 0.272863 1.172756 0.070541
v 0.263729 1.006073 0.153217
v 0.260001 1.127683 0.150317
v 0.257439 0.991494 0.165887
v 0.256616 1.072897 0.165371
v 0.253407 1.153871 0.159654
v 0.250199 1.071269 0.188928
v 0.180064 1.078047 -0.036013
v 0.176697 1.000764 -0.005715
v 0.174191 1.133583 -0.008819
v 0.167675 0.984025 0.058053
v 0.163230 1.157997 0.055294
v 0.151523 1.004340 0.127233
v 0.148523 1.138112 0.127321
v 0.145268 1.071280 0.144362
v 0.124235 1.072737 -0.009168
v 0.123537 1.018096 -0.003129
v 0.116514 1.117552 0.044793
v 0.108253 1.015668 0.101555
v 0.107777 1.017015 0.045951
v 0.106967 1.070703 0.108502
v 0.102124 1.068550 0.042610
v 0.804564 1.051342 0.029289
v 0.798951 1.037316 0.072672
v 0.793585 1.047885 0.043632
v 0.791270 1.057936 -0.006196
v 0.786496 1.009663 0.026620
v 0.785523 1.057122 -0.020198
v 0.778898 1.000387 0.068700
v 0.773141 1.016271 -0.006200
v 0.771796 1.013880 -0.016213
v 0.771573 1.008361 0.044936
v 0.767120 1.058337 -0.053396
v 0.755140 1.014408 -0.049815
v 0.289926 0.619920 -0.003366
v 0.204633 0.615761 -0.151120
v 0.190784 0.610902 0.160838
v 0.182895 0.567740 0.143520
v 0.103518 0.611129 -0.198985
v 0.042175 0.567740 0.145770
v -0.000000 0.549367 -0.008279
v -0.000000 0.605195 0.190998
v -0.000000 0.609099 -0.211752
v -0.042175 0.567740 0.145770
v -0.103518 0.611129 -0.198985
v -0.182895 0.567740 0.143520
v -0.190784 0.610902 0.160838
v -0.204633 0.615761 -0.151120
v -0.289926 0.619920 -0.003366
v -0.051885 0.348734 0.141840
v -0.093488 0.567793 -0.128045
v -0.177580 0.348703 0.140715
v -0.202335 0.579236 -0.127742
v -0.258214 0.567740 -0.005448
v -0.005661 0.340208 0.012495
v -0.010509 0.106700 0.022375
v -0.010514 0.168397 0.022364
v -0.010514 0.168397 0.022364
v -0.011124 0.159963 0.022544
v -0.011124 0.159963 0.022544
v -0.039825 0.109986 0.116496
v -0.049458 0.169897 0.151623
v -0.049679 0.162336 0.151785
v -0.049679 0.162336 0.151785
v -0.049887 0.111507 0.153417
v -0.051524 0.303114 0.142953
v -0.078632 0.173697 -0.121289
v -0.078922 0.164875 -0.120624
v -0.078922 0.164875 -0.120624
v -0.079131 0.112083 -0.113180
v -0.082027 0.297694 -0.126441
v -0.082395 0.365319 -0.130367
v -0.091095 0.110359 0.150734
v -0.123532 0.204413 0.042802
v -0.164964 0.110729 0.148189
v -0.174439 0.177060 0.151688
v -0.174677 0.167981 0.151957
v -0.176407 0.112735 0.153295
v -0.177025 0.303268 0.142825
v -0.193774 0.367068 -0.130341
v -0.194072 0.175350 -0.119135
v -0.194340 0.167034 -0.118412
v -0.196087 0.112818 -0.110420
v -0.197439 0.297753 -0.126494
v -0.251807 0.174889 0.023873
v -0.252091 0.163607 0.024232
v -0.254973 0.340120 0.012497
v -0.028297 0.015600 0.004528
v -0.031566 -0.000975 0.129695
v -0.041783 0.108168 0.003588
v -0.093685 -0.000975 0.163271
v -0.161537 -0.000975 0.156126
v -0.222989 0.015597 0.055488
v -0.229767 0.107729 0.042693
v -0.254516 0.110384 0.024234
v 0.258214 0.567740 -0.005448
v 0.202335 0.579236 -0.127742
v 0.177580 0.348703 0.140715
v 0.093488 0.567793 -0.128045
v 0.051885 0.348734 0.141840
v 0.254973 0.340120 0.012497
v 0.252091 0.163607 0.024232
v 0.251807 0.174889 0.023873
v 0.197439 0.297753 -0.126494
v 0.196087 0.112818 -0.110420
v 0.194340 0.167034 -0.118412
v 0.194072 0.175350 -0.119135
v 0.193774 0.367068 -0.130341
v 0.177110 0.303084 0.142766
v 0.176407 0.112735 0.153295
v 0.174676 0.167981 0.151957
v 0.174439 0.177060 0.151688
v 0.164963 0.110729 0.148189
v 0.123532 0.204413 0.042802
v 0.091095 0.110359 0.150734
v 0.082395 0.365319 -0.130367
v 0.082027 0.297694 -0.126441
v 0.079131 0.112082 -0.113180
v 0.078922 0.164875 -0.120624
v 0.078922 0.164875 -0.120624
v 0.078632 0.173697 -0.121289
v 0.051504 0.303175 0.142969
v 0.049887 0.111507 0.153417
v 0.049679 0.162336 0.151785
v 0.049679 0.162336 0.151785
v 0.049458 0.169897 0.151623
v 0.042140 0.108168 0.003588
v 0.011124 0.159963 0.022544
v 0.011124 0.159963 0.022544
v 0.010514 0.168397 0.022364
v 0.010514 0.168397 0.022364
v 0.010509 0.106700 0.022375
v 0.005661 0.340208 0.012495
v 0.254516 0.110384 0.024234
v 0.229767 0.107729 0.042693
v 0.222989 0.015597 0.055488
v 0.161537 -0.000975 0.156126
v 0.093685 -0.000975 0.163271
v 0.071043 0.112573 -0.082787
v 0.055187 0.062003 -0.103406
v 0.039825 0.109986 0.116496
v 0.028297 0.015600 0.004528
v 0.324208 0.676051 -0.004068
v 0.312339 0.711656 -0.003801
v 0.302249 0.805959 -0.005718
v 0.258747 0.905843 0.001598
v 0.234110 0.679491 -0.221945
v 0.233140 0.670727 0.220883
v 0.229905 0.701226 0.202863
v 0.229438 0.703329 -0.204252
v 0.218716 0.803144 -0.211550
v 0.217667 0.796126 0.208849
v 0.187803 0.897584 0.192561
v 0.187793 0.916296 -0.182821
v 0.107291 0.702295 -0.265711
v 0.000000 0.670731 0.299423
v -0.000000 0.685972 -0.321485
v -0.000000 0.701678 -0.295984
v -0.000000 0.702592 0.277928
v 0.000000 0.791237 0.299888
v -0.000000 0.803471 -0.310851
v 0.000000 0.894267 0.270257
v -0.000000 0.917499 -0.259404
v -0.107291 0.702295 -0.265711
v -0.187793 0.916296 -0.182821
v -0.187803 0.897584 0.192561
v -0.217667 0.796126 0.208849
v -0.218716 0.803144 -0.211550
v -0.229438 0.703329 -0.204252
v -0.229904 0.701226 0.202863
v -0.233140 0.670727 0.220883
v -0.234110 0.679491 -0.221945
v -0.258748 0.905843 0.001598
v -0.302249 0.805959 -0.005718
v -0.312339 0.711656 -0.003801
v -0.324208 0.676051 -0.004068
v 0.210004 0.976444 0.017582
v 0.159062 0.985705 -0.143752
v 0.156136 1.180463 0.062404
v 0.154770 0.982771 0.171304
v 0.154235 1.158972 -0.038556
v 0.148546 1.152926 0.034408
v 0.138202 1.237109 -0.054942
v 0.138202 1.237109 -0.054942
v 0.138202 1.237109 -0.054942
v 0.138178 1.254304 0.049117
v 0.138178 1.254304 0.049117
v 0.138178 1.254304 0.049117
v 0.122324 1.141422 -0.116797
v 0.120892 1.132285 -0.105348
v 0.105316 1.194479 0.137234
v 0.104857 1.168503 0.131566
v 0.092898 1.271196 0.122369
v 0.092898 1.271196 0.122369
v 0.092898 1.271196 0.122369
v 0.064983 1.218752 -0.137310
v 0.064983 1.218752 -0.137310
v 0.064983 1.218752 -0.137310
v 0.000000 0.983584 0.221989
v -0.000000 0.987024 -0.205144
v -0.000000 1.199109 0.178054
v -0.000000 1.135009 -0.152993
v -0.000000 1.135009 -0.152993
v -0.000000 1.141165 0.001339
v -0.000000 1.177752 0.168008
v -0.000000 1.278215 0.158219
v -0.000000 1.278215 0.158219
v -0.000000 1.278215 0.158219
v -0.000000 1.278215 0.158219
v -0.064984 1.218752 -0.137310
v -0.064984 1.218752 -0.137310
v -0.064984 1.218752 -0.137310
v -0.092898 1.271196 0.122369
v -0.092898 1.271196 0.122369
v -0.092898 1.271196 0.122369
v -0.104857 1.168503 0.131566
v -0.105316 1.194478 0.137234
v -0.120892 1.132285 -0.105348
v -0.122324 1.141422 -0.116797
v -0.138178 1.254304 0.049117
v -0.138178 1.254304 0.049117
v -0.138178 1.254304 0.049117
v -0.138202 1.237109 -0.054942
v -0.138202 1.237109 -0.054942
v -0.138202 1.237109 -0.054942
v -0.148546 1.152926 0.034408
v -0.154235 1.158972 -0.038556
v -0.154770 0.982771 0.171304
v -0.156136 1.180463 0.062405
v -0.159062 0.985705 -0.143752
v -0.210004 0.976444 0.017582
v 0.109295 1.246211 0.001712
v 0.080095 1.251281 0.085026
v 0.072069 1.225633 -0.064324
v -0.000000 1.200742 -0.106118
v -0.000000 1.264407 0.127430
v -0.072069 1.225633 -0.064324
v -0.080095 1.251281 0.085026
v -0.109295 1.246211 0.001712
v 0.133075 1.357632 -0.098442
v 0.132696 1.377859 -0.100301
v 0.128500 1.358348 -0.111670
v 0.128233 1.376307 -0.119477
v 0.125570 1.377538 -0.075980
v 0.123727 1.358162 -0.114281
v 0.123187 1.353103 -0.019328
v 0.115640 1.327291 -0.076487
v 0.115640 1.327291 -0.076487
v 0.115295 1.299471 -0.007609
v 0.103082 1.366554 0.048698
v 0.093950 1.286308 -0.084691
v 0.093950 1.286308 -0.084691
v 0.086669 1.311754 0.071150
v 0.065066 1.368611 0.092242
v 0.055233 1.261199 -0.096491
v 0.055233 1.261199 -0.096491
v -0.000000 1.252871 -0.110329
v -0.000000 1.252871 -0.110329
v -0.000000 1.322171 0.120732
v -0.000000 1.364933 0.122722
v -0.055233 1.261199 -0.096491
v -0.055233 1.261199 -0.096491
v -0.065066 1.368611 0.092242
v -0.086669 1.311754 0.071150
v -0.093950 1.286308 -0.084691
v -0.093950 1.286308 -0.084691
v -0.103082 1.366554 0.048698
v -0.115295 1.299471 -0.007609
v -0.115640 1.327291 -0.076487
v -0.115640 1.327291 -0.076487
v -0.123187 1.353103 -0.019328
v -0.123727 1.358162 -0.114281
v -0.125570 1.377538 -0.075980
v -0.128233 1.376307 -0.119477
v -0.128500 1.358348 -0.111670
v -0.132696 1.377859 -0.100301
v -0.133075 1.357632 -0.098442
v 0.123111 1.341406 -0.112663
v 0.106447 1.350896 -0.129444
v 0.096410 1.311061 -0.131607
v 0.095434 1.325741 -0.148385
v 0.056741 1.280497 -0.148323
v -0.000000 1.278352 -0.151212
v -0.056741 1.280497 -0.148323
v -0.095434 1.325741 -0.148385
v -0.096410 1.311061 -0.131607
v -0.106447 1.350896 -0.129444
v -0.123112 1.341406 -0.112663
v -0.256616 1.072897 0.165371
v -0.260001 1.127683 0.150317
v -0.263729 1.006073 0.153217
v -0.276334 1.153416 0.069610
v -0.278118 0.992884 0.077035
v -0.285898 1.006390 0.027540
v -0.287889 1.134971 0.010971
v -0.293906 1.070447 -0.008135
v -0.393520 1.061823 0.178816
v -0.396983 1.003984 0.157412
v -0.403713 1.121963 0.156872
v -0.407212 1.008885 0.032902
v -0.409398 1.127305 0.032137
v -0.410734 1.064695 0.012384
v -0.424177 1.004691 0.157074
v -0.426650 0.997502 0.097635
v -0.427807 1.063368 0.178205
v -0.429181 1.121570 0.156136
v -0.430388 1.141698 0.096999
v -0.450466 1.010626 0.039284
v -0.451371 1.005397 0.156735
v -0.454649 1.121177 0.155399
v -0.457211 1.064693 0.177682
v -0.458819 1.065006 0.018714
v -0.460245 1.125133 0.037651
v -0.590266 1.086517 0.009221
v -0.591186 1.029090 0.020412
v -0.596977 1.118418 0.021340
v -0.598795 1.122756 0.068788
v -0.601677 1.017316 0.062475
v -0.610434 1.015891 0.128892
v -0.615005 1.102538 0.130078
v -0.617010 1.072464 0.144658
v -0.675034 1.032653 -0.015348
v -0.688026 1.100502 -0.028287
v -0.701108 1.016025 0.040142
v -0.704023 1.111876 0.023029
v -0.714350 1.013505 0.105187
v -0.719442 1.098327 0.066436
v -0.720857 1.073035 0.116702
v -0.708179 1.035457 -0.035689
v -0.723236 1.085356 -0.038736
v -0.732545 1.026723 0.004803
v -0.747891 1.018781 0.048073
v -0.748560 1.089326 0.004839
v -0.748560 1.089326 0.004839
v -0.751517 1.008256 0.086976
v -0.755140 1.014408 -0.049815
v -0.764276 1.078361 0.049507
v -0.764276 1.078361 0.049507
v -0.767120 1.058337 -0.053396
v -0.769256 1.058924 0.093102
v -0.771573 1.008361 0.044937
v -0.771796 1.013880 -0.016213
v -0.773141 1.016271 -0.006200
v -0.778898 1.000387 0.068700
v -0.785523 1.057122 -0.020198
v -0.786496 1.009664 0.026620
v -0.791270 1.057936 -0.006196
v -0.793585 1.047885 0.043632
v -0.798951 1.037316 0.072672
v -0.804564 1.051342 0.029289
v -0.623144 1.033016 -0.030341
v -0.633414 1.092595 -0.040675
v -0.653517 1.022851 -0.065722
v -0.663798 1.071449 -0.075101
v -0.689195 1.024487 -0.045241
v -0.698252 1.070929 -0.054906
v 0.410734 1.064695 0.012384
v 0.409398 1.127305 0.032137
v 0.407212 1.008885 0.032902
v 0.403713 1.121963 0.156872
v 0.396983 1.003984 0.157412
v 0.393520 1.061823 0.178816
v 0.293906 1.070447 -0.008135
v 0.287889 1.134971 0.010971
v 0.285898 1.006390 0.027540
v 0.278119 0.992884 0.077035
v 0.276334 1.153416 0.069610
v 0.263729 1.006073 0.153217
v 0.260001 1.127683 0.150317
v 0.256616 1.072897 0.165371
v 0.460245 1.125132 0.037651
v 0.458819 1.065006 0.018714
v 0.457211 1.064693 0.177682
v 0.454649 1.121177 0.155399
v 0.451371 1.005397 0.156735
v 0.450467 1.010626 0.039284
v 0.430388 1.141698 0.096999
v 0.429181 1.121570 0.156136
v 0.427807 1.063368 0.178205
v 0.426650 0.997501 0.097635
v 0.424177 1.004691 0.157074
v 0.617010 1.072464 0.144658
v 0.615006 1.102538 0.130078
v 0.610434 1.015891 0.128892
v 0.601677 1.017316 0.062475
v 0.598795 1.122756 0.068788
v 0.596977 1.118418 0.021340
v 0.591186 1.029090 0.020412
v 0.590266 1.086517 0.009221
v 0.720857 1.073035 0.116702
v 0.719442 1.098327 0.066436
v 0.714350 1.013505 0.105186
v 0.704023 1.111876 0.023029
v 0.701108 1.016025 0.040142
v 0.688026 1.100502 -0.028287
v 0.675034 1.032653 -0.015348
v 0.804564 1.051342 0.029289
v 0.798951 1.037316 0.072672
v 0.793585 1.047885 0.043632
v 0.791270 1.057936 -0.006196
v 0.786496 1.009663 0.026620
v 0.785523 1.057122 -0.020198
v 0.778898 1.000387 0.068700
v 0.773141 1.016271 -0.006200
v 0.771796 1.013880 -0.016213
v 0.771573 1.008361 0.044936
v 0.769256 1.058925 0.093102
v 0.767120 1.058337 -0.053396
v 0.764276 1.078361 0.049507
v 0.764276 1.078361 0.049507
v 0.755140 1.014408 -0.049815
v 0.751517 1.008256 0.086976
v 0.748560 1.089326 0.004839
v 0.748560 1.089326 0.004839
v 0.747891 1.018781 0.048073
v 0.732545 1.026723 0.004803
v 0.723235 1.085356 -0.038736
v 0.708179 1.035457 -0.035689
v 0.698252 1.070930 -0.054906
v 0.689195 1.024487 -0.045241
v 0.663798 1.071449 -0.075102
v 0.653517 1.022851 -0.065722
v 0.633414 1.092595 -0.040675
v 0.623144 1.033016 -0.030341
v 0.152636 1.563373 -0.050035
v 0.151356 1.565289 -0.085314
v 0.139017 1.520129 -0.083025
v 0.137273 1.566449 -0.128386
v 0.134907 1.609373 -0.053443
v 0.127829 1.531885 -0.132053
v 0.124683 1.600190 -0.127777
v 0.113213 1.566677 -0.149721
v 0.108102 1.547971 -0.151706
v 0.106400 1.584937 -0.149391
v 0.102602 1.491143 -0.108316
v 0.099958 1.509700 -0.137379
v 0.095952 1.635543 -0.102208
v 0.094869 1.620219 -0.130459
v 0.093019 1.535965 -0.154588
v 0.090264 1.595777 -0.150843
v 0.082839 1.565938 -0.160256
v 0.073724 1.535244 -0.157266
v 0.070970 1.595056 -0.153521
v 0.059217 1.618887 -0.135408
v 0.058683 1.500239 -0.130761
v 0.055886 1.583050 -0.156403
v 0.054743 1.546084 -0.158718
v 0.054001 1.633803 -0.108674
v 0.045819 1.564344 -0.158388
v 0.028869 1.520268 -0.134490
v 0.025322 1.599533 -0.140733
v 0.011453 1.604817 -0.115632
v 0.000272 1.554009 -0.129600
v -0.000272 1.554009 -0.129600
v -0.011453 1.604817 -0.115632
v -0.025322 1.599533 -0.140733
v -0.028869 1.520268 -0.134490
v -0.045819 1.564344 -0.158388
v -0.054001 1.628973 -0.108674
v -0.054743 1.546084 -0.158718
v -0.055886 1.583050 -0.156403
v -0.058683 1.500239 -0.130761
v -0.059218 1.618887 -0.135408
v -0.070970 1.595056 -0.153521
v -0.073724 1.535244 -0.157266
v -0.082839 1.565938 -0.160256
v -0.090264 1.595777 -0.150843
v -0.093019 1.535965 -0.154588
v -0.094869 1.620219 -0.130459
v -0.095952 1.635543 -0.102208
v -0.099959 1.509700 -0.137379
v -0.102602 1.491143 -0.108315
v -0.106400 1.584937 -0.149391
v -0.108102 1.547971 -0.151706
v -0.113213 1.566677 -0.149721
v -0.124683 1.600190 -0.127777
v -0.127829 1.531885 -0.132053
v -0.134907 1.609373 -0.053443
v -0.137273 1.566449 -0.128386
v -0.139017 1.520129 -0.083025
v -0.151356 1.565289 -0.085314
v -0.152636 1.563373 -0.050035
vt 0.714329 0.463258
vt 0.714329 0.463258
vt 0.217390 0.658359
vt 0.217390 0.658359
vt 0.217390 0.658359
vt 0.217390 0.658359
vt 0.217390 0.658359
vt 0.217390 0.658359
vt 0.656137 0.469979
vt 0.656137 0.469979
vt 0.656137 0.469979
vt 0.656137 0.469979
vt 0.656137 0.469979
vt 0.656137 0.469979
vt 0.656137 0.469979
vt 0.656137 0.469979
vt 0.656137 0.469979
vt 0.656137 0.469979
vt 0.656137 0.469979
vt 0.656137 0.469979
vt 0.656137 0.469979
vt 0.656137 0.469979
vt 0.656137 0.469979
vt 0.656137 0.469979
vt 0.656137 0.469979
vt 0.656137 0.469979
vt 0.714621 0.893968
vt 0.714621 0.893968
vt 0.714621 0.893968
vt 0.854248 0.850745
vt 0.589704 0.593980
vt 0.589704 0.593980
vt 0.589704 0.593980
vt 0.589704 0.593981
vt 0.589704 0.593981
vt 0.589704 0.593981
vt 0.589704 0.593980
vt 0.589704 0.593980
vt 0.589704 0.593980
vt 0.589704 0.593981
vt 0.589704 0.593981
vt 0.589704 0.593981
vt 0.589704 0.593981
vt 0.589704 0.593980
vt 0.589704 0.593980
vt 0.589704 0.593980
vt 0.589704 0.593981
vt 0.651770 0.177438
vt 0.651770 0.156684
vt 0.651770 0.164831
vt 0.651770 0.154928
vt 0.651770 0.158176
vt 0.651770 0.156684
vt 0.651770 0.164831
vt 0.651770 0.174004
vt 0.651770 0.165779
vt 0.651770 0.159440
vt 0.651770 0.148265
vt 0.651770 0.151362
vt 0.651770 0.159440
vt 0.651770 0.165779
vt 0.651770 0.174004
vt 0.726041 0.391810
vt 0.726041 0.391809
vt 0.726041 0.391810
vt 0.873177 0.859439
vt 0.873177 0.859439
vt 0.873177 0.859439
vt 0.217408 0.714643
vt 0.591625 0.590342
vt 0.591625 0.590342
vt 0.591625 0.590342
vt 0.591625 0.590342
vt 0.591625 0.590342
vt 0.591625 0.590342
vt 0.591625 0.590342
vt 0.873177 0.859439
vt 0.873177 0.859439
vt 0.873177 0.859439
vt 0.873177 0.859439
vt 0.873177 0.859439
vt 0.715928 0.892620
vt 0.715928 0.892620
vt 0.715928 0.892620
vt 0.715928 0.892620
vt 0.715928 0.892620
vt 0.715928 0.892620
vt 0.715928 0.892620
vt 0.715928 0.892620
vt 0.715928 0.892620
vt 0.715928 0.892620
vt 0.217390 0.658359
vt 0.217390 0.658359
vt 0.217390 0.658359
vt 0.217390 0.658359
vt 0.217390 0.658359
vt 0.217390 0.658359
vt 0.412432 0.471591
vt 0.412432 0.471591
vt 0.412432 0.471591
vt 0.412432 0.471591
vt 0.412432 0.471591
vt 0.412432 0.471591
vt 0.412432 0.471591
vt 0.217390 0.658359
vt 0.217390 0.658359
vt 0.217390 0.658359
vt 0.217390 0.658359
vt 0.217390 0.658359
vt 0.217390 0.658359
vt 0.217390 0.658359
vt 0.217390 0.658359
vt 0.217390 0.658359
vt 0.217390 0.658359
vt 0.217390 0.658359
vt 0.217390 0.658359
vt 0.217390 0.658359
vt 0.217390 0.658359
vt 0.217390 0.658359
vt 0.217390 0.658359
vt 0.217390 0.658359
vt 0.217390 0.658359
vt 0.714621 0.893968
vt 0.714621 0.893968
vt 0.714621 0.893968
vt 0.714621 0.893968
vt 0.714621 0.893968
vt 0.714621 0.893968
vt 0.714621 0.893968
vt 0.714621 0.893968
vt 0.714621 0.893968
vt 0.589704 0.593981
vt 0.591625 0.590342
vt 0.591625 0.590342
vt 0.591625 0.590342
vt 0.591625 0.590342
vt 0.591625 0.590342
vt 0.591625 0.590343
vt 0.591625 0.590342
vt 0.591625 0.590342
vt 0.591625 0.590342
vt 0.591625 0.590342
vt 0.591625 0.590342
vt 0.591625 0.590342
vt 0.910754 0.956742
vt 0.907865 0.956782
vt 0.917179 0.935077
vt 0.917718 0.978224
vt 0.918979 0.956630
vt 0.923896 0.940048
vt 0.934539 0.921504
vt 0.937183 0.929659
vt 0.953765 0.929432
vt 0.941141 0.941865
vt 0.950115 0.941742
vt 0.967308 0.939453
vt 0.957444 0.947165
vt 0.912344 0.737768
vt 0.876049 0.860150
vt 0.836708 0.738806
vt 0.776099 0.786191
vt 0.933950 0.947487
vt 0.931288 0.956461
vt 0.753668 0.861826
vt 0.934173 0.965359
vt 0.777982 0.936821
vt 0.839755 0.982531
vt 0.915391 0.981495
vt 0.976000 0.934108
vt 0.998431 0.858473
vt 0.974117 0.783477
vt 0.960328 0.956063
vt 0.972638 0.955894
vt 0.957667 0.965037
vt 0.967720 0.972476
vt 0.974438 0.977446
vt 0.954433 0.982864
vt 0.957077 0.991020
vt 0.937851 0.983091
vt 0.935412 0.991316
vt 0.924309 0.973071
vt 0.941502 0.970782
vt 0.950476 0.970659
vt 0.794215 0.952950
vt 0.802491 0.959073
vt 0.800274 0.932522
vt 0.777846 0.965748
vt 0.781103 0.975795
vt 0.757417 0.966028
vt 0.754412 0.976161
vt 0.740734 0.953683
vt 0.732614 0.960031
vt 0.734167 0.933427
vt 0.724034 0.933566
vt 0.720475 0.933615
vt 0.731949 0.906875
vt 0.740225 0.912999
vt 0.753337 0.890154
vt 0.756595 0.900201
vt 0.777023 0.899921
vt 0.761470 0.915238
vt 0.772525 0.915086
vt 0.793707 0.912266
vt 0.781555 0.921767
vt 0.785109 0.932729
vt 0.781830 0.943785
vt 0.772971 0.950711
vt 0.761915 0.950863
vt 0.752886 0.944182
vt 0.749332 0.933220
vt 0.752610 0.922164
vt 0.877284 0.860116
vt 0.838936 0.741833
vt 0.779855 0.788023
vt 0.912663 0.740821
vt 0.972877 0.785378
vt 0.996578 0.858481
vt 0.974712 0.932208
vt 0.915633 0.978399
vt 0.841905 0.979409
vt 0.781691 0.934853
vt 0.757990 0.861750
s 1
f 2/1 3/1 1/2
f 3/1 2/1 10/2
f 9/1 10/2 2/1
f 16/1 10/2 9/1
f 10/2 16/1 18/2
f 18/2 16/1 14/2
f 12/1 14/2 16/1
f 14/2 12/1 6/1
f 5/1 6/1 12/1
f 6/1 5/1 1/2
f 11/3 7/4 4/5
f 7/4 11/3 15/6
f 13/7 51/8 17/8
f 45/9 31/10 20/11
f 53/12 31/10 45/9
f 31/10 53/12 59/13
f 62/9 59/13 53/12
f 59/13 57/14 31/10
f 19/11 26/15 22/16
f 19/11 29/17 28/18
f 30/10 29/17 19/11
f 56/14 29/17 30/10
f 29/17 56/14 55/19
f 55/19 56/14 58/20
f 60/13 58/20 56/14
f 58/20 60/13 61/19
f 63/9 61/19 60/13
f 61/19 63/9 52/21
f 54/12 52/21 63/9
f 47/9 52/21 54/12
f 48/22 52/21 47/9
f 52/21 48/22 49/23
f 8/24 49/23 48/22
f 49/23 8/24 37/25
f 37/25 8/24 32/23
f 28/18 32/23 8/24
f 29/17 32/23 28/18
f 32/23 29/17 36/15
f 55/19 36/15 29/17
f 36/15 55/19 40/26
f 58/20 40/26 55/19
f 40/26 58/20 50/15
f 61/19 50/15 58/20
f 52/21 50/15 61/19
f 49/23 50/15 52/21
f 37/25 50/15 49/23
f 50/15 37/25 40/26
f 40/26 37/25 36/15
f 32/23 36/15 37/25
f 39/15 47/9 44/9
f 34/15 42/9 23/16
f 43/9 21/11 25/16
f 21/11 43/9 46/9
f 35/15 24/16 27/15
f 33/15 38/15 41/9
f 85/8 68/7 64/8
f 70/3 75/4 67/6
f 75/4 70/3 77/5
f 78/1 76/1 81/2
f 71/1 76/1 78/1
f 76/1 71/1 69/2
f 66/1 69/2 71/1
f 69/2 66/1 65/2
f 65/2 66/1 72/2
f 73/1 72/2 66/1
f 80/1 72/2 73/1
f 72/2 80/1 79/1
f 81/2 79/1 80/1
f 93/9 116/11 90/9
f 116/11 93/9 112/16
f 89/9 97/15 92/9
f 108/17 107/10 118/11
f 107/10 108/17 126/14
f 127/19 126/14 108/17
f 124/20 126/14 127/19
f 126/14 124/20 122/13
f 121/19 122/13 124/20
f 122/13 121/19 119/9
f 84/21 119/9 121/19
f 119/9 84/21 82/12
f 82/12 84/21 89/9
f 89/9 84/21 88/22
f 87/23 88/22 84/21
f 88/22 87/23 74/24
f 99/25 74/24 87/23
f 74/24 99/25 105/23
f 100/15 105/23 99/25
f 105/23 100/15 108/17
f 108/17 100/15 127/19
f 96/26 127/19 100/15
f 127/19 96/26 124/20
f 86/15 124/20 96/26
f 124/20 86/15 121/19
f 121/19 86/15 84/21
f 84/21 86/15 87/23
f 87/23 86/15 99/25
f 96/26 99/25 86/15
f 99/25 96/26 100/15
f 98/15 103/15 95/9
f 123/13 106/10 125/14
f 106/10 123/13 83/12
f 120/9 83/12 123/13
f 106/10 91/9 117/11
f 91/9 106/10 83/12
f 113/16 101/15 110/15
f 109/9 111/15 104/15
f 118/11 111/15 109/9
f 111/15 118/11 115/16
f 94/9 102/15 114/16
f 128/27 130/28 129/29
f 139/28 141/27 140/29
f 161/30 151/30 158/30
f 151/30 161/30 153/30
f 160/30 155/30 157/30
f 155/30 160/30 154/30
f 172/30 150/30 167/30
f 150/30 172/30 152/30
f 173/30 187/30 168/30
f 189/30 187/30 173/30
f 230/30 187/30 189/30
f 187/30 230/30 231/30
f 231/30 230/30 269/30
f 270/30 269/30 230/30
f 305/30 269/30 270/30
f 269/30 305/30 306/30
f 306/30 305/30 352/30
f 351/30 352/30 305/30
f 391/30 352/30 351/30
f 352/30 391/30 390/30
f 390/30 391/30 434/30
f 432/30 434/30 391/30
f 448/30 434/30 432/30
f 434/30 448/30 453/30
f 201/31 207/32 211/32
f 198/33 207/32 201/31
f 207/32 198/33 226/31
f 197/31 226/31 198/33
f 250/34 226/31 197/31
f 226/31 250/34 256/34
f 302/35 256/34 250/34
f 256/34 302/35 299/35
f 299/35 302/35 368/34
f 374/34 368/34 302/35
f 368/34 374/34 395/31
f 424/31 395/31 374/34
f 423/33 395/31 424/31
f 395/31 423/33 414/32
f 421/31 414/32 423/33
f 414/32 421/31 410/32
f 179/32 197/31 198/33
f 171/31 197/31 179/32
f 156/31 197/31 171/31
f 197/31 156/31 174/31
f 159/32 174/31 156/31
f 175/31 174/31 159/32
f 199/32 174/31 175/31
f 174/31 199/32 197/31
f 197/31 199/32 250/34
f 424/31 442/32 423/33
f 442/32 424/31 450/31
f 450/31 424/31 465/31
f 447/31 465/31 424/31
f 465/31 447/31 462/32
f 446/31 462/32 447/31
f 169/33 165/36 162/33
f 165/36 169/33 175/31
f 202/36 175/31 169/33
f 175/31 202/36 199/32
f 247/36 199/32 202/36
f 247/36 250/34 199/32
f 250/34 247/36 302/35
f 311/37 302/35 247/36
f 376/36 302/35 311/37
f 302/35 376/36 374/34
f 422/32 374/34 376/36
f 374/34 422/32 424/31
f 424/31 422/32 447/31
f 447/31 422/32 446/31
f 446/31 422/32 419/36
f 376/36 419/36 422/32
f 419/36 376/36 412/33
f 459/33 452/33 458/31
f 456/36 452/33 459/33
f 446/31 452/33 456/36
f 419/36 452/33 446/31
f 452/33 419/36 455/31
f 412/33 455/31 419/36
f 455/31 412/33 444/38
f 444/38 412/33 430/36
f 430/36 412/33 401/36
f 369/33 401/36 412/33
f 411/38 397/32 394/39
f 397/32 411/38 430/36
f 437/33 430/36 411/38
f 430/36 437/33 444/38
f 439/31 444/38 437/33
f 444/38 439/31 455/31
f 455/31 439/31 457/31
f 413/33 457/31 439/31
f 425/31 457/31 413/33
f 458/31 457/31 425/31
f 457/31 458/31 455/31
f 455/31 458/31 452/33
f 370/34 401/36 369/33
f 401/36 370/34 388/36
f 358/36 388/36 370/34
f 354/40 388/36 358/36
f 397/32 388/36 354/40
f 430/36 388/36 397/32
f 388/36 430/36 401/36
f 412/33 376/36 369/33
f 311/37 369/33 376/36
f 317/41 369/33 311/37
f 369/33 317/41 370/34
f 319/35 370/34 317/41
f 370/34 319/35 358/36
f 322/41 358/36 319/35
f 358/36 322/41 354/40
f 323/42 354/40 322/41
f 364/43 354/40 323/42
f 354/40 364/43 397/32
f 394/39 397/32 364/43
f 260/43 323/42 267/40
f 322/41 267/40 323/42
f 267/40 322/41 265/36
f 319/35 265/36 322/41
f 265/36 319/35 254/34
f 317/41 254/34 319/35
f 254/34 317/41 255/33
f 311/37 255/33 317/41
f 247/36 255/33 311/37
f 255/33 247/36 209/33
f 202/36 209/33 247/36
f 209/33 202/36 166/31
f 169/33 166/31 202/36
f 166/31 169/33 163/31
f 224/32 210/38 227/39
f 210/38 224/32 191/36
f 234/36 191/36 224/32
f 220/36 191/36 234/36
f 191/36 220/36 209/33
f 209/33 220/36 255/33
f 255/33 220/36 254/34
f 234/36 254/34 220/36
f 254/34 234/36 265/36
f 265/36 234/36 267/40
f 224/32 267/40 234/36
f 267/40 224/32 260/43
f 184/33 219/36 225/31
f 219/36 184/33 182/31
f 177/38 182/31 184/33
f 182/31 177/38 166/31
f 166/31 177/38 209/33
f 209/33 177/38 191/36
f 184/33 191/36 177/38
f 191/36 184/33 210/38
f 225/31 210/38 184/33
f 210/38 225/31 232/33
f 232/33 225/31 268/31
f 266/36 268/31 225/31
f 268/31 266/36 324/44
f 288/36 324/44 266/36
f 324/44 288/36 333/36
f 338/31 333/36 288/36
f 375/31 333/36 338/31
f 355/36 333/36 375/31
f 333/36 355/36 324/44
f 353/31 324/44 355/36
f 326/44 324/44 353/31
f 324/44 326/44 268/31
f 263/39 268/31 326/44
f 268/31 263/39 232/33
f 227/39 232/33 263/39
f 232/33 227/39 210/38
f 227/39 260/43 224/32
f 263/39 260/43 227/39
f 260/43 263/39 325/35
f 326/44 325/35 263/39
f 325/35 326/44 359/39
f 353/31 359/39 326/44
f 359/39 353/31 389/33
f 389/33 353/31 396/31
f 355/36 396/31 353/31
f 375/31 396/31 355/36
f 396/31 375/31 402/36
f 402/36 375/31 385/31
f 425/31 385/31 387/31
f 413/33 385/31 425/31
f 385/31 413/33 402/36
f 439/31 402/36 413/33
f 437/33 402/36 439/31
f 402/36 437/33 396/31
f 411/38 396/31 437/33
f 396/31 411/38 389/33
f 394/39 389/33 411/38
f 389/33 394/39 359/39
f 364/43 359/39 394/39
f 359/39 364/43 325/35
f 323/42 325/35 364/43
f 325/35 323/42 260/43
f 338/31 385/31 375/31
f 385/31 338/31 340/31
f 340/31 338/31 330/45
f 321/45 330/45 338/31
f 320/44 330/45 321/45
f 318/44 330/45 320/44
f 331/46 330/45 318/44
f 341/31 330/45 331/46
f 330/45 341/31 340/31
f 387/31 340/31 341/31
f 340/31 387/31 385/31
f 284/31 290/45 280/31
f 318/44 290/45 284/31
f 290/45 318/44 291/45
f 320/44 291/45 318/44
f 321/45 291/45 320/44
f 291/45 321/45 283/31
f 338/31 283/31 321/45
f 288/36 283/31 338/31
f 283/31 288/36 248/31
f 266/36 248/31 288/36
f 225/31 248/31 266/36
f 248/31 225/31 219/36
f 164/31 196/31 208/33
f 196/31 164/31 163/31
f 163/31 164/31 166/31
f 166/31 164/31 182/31
f 208/33 182/31 164/31
f 182/31 208/33 219/36
f 239/31 219/36 208/33
f 219/36 239/31 248/31
f 248/31 239/31 283/31
f 281/31 283/31 239/31
f 283/31 281/31 291/45
f 280/31 291/45 281/31
f 291/45 280/31 290/45
f 190/31 163/31 176/36
f 163/31 190/31 196/31
f 238/31 196/31 190/31
f 196/31 238/31 237/31
f 284/31 237/31 238/31
f 280/31 237/31 284/31
f 281/31 237/31 280/31
f 239/31 237/31 281/31
f 237/31 239/31 196/31
f 208/33 196/31 239/31
f 162/33 163/31 169/33
f 163/31 162/33 176/36
f 165/36 176/36 162/33
f 176/36 165/36 183/47
f 212/31 183/47 165/36
f 183/47 212/31 277/31
f 278/31 277/31 212/31
f 289/36 277/31 278/31
f 277/31 289/36 284/31
f 316/44 284/31 289/36
f 284/31 316/44 318/44
f 337/31 318/44 316/44
f 318/44 337/31 331/46
f 331/46 337/31 341/31
f 337/31 332/36 344/31
f 316/44 332/36 337/31
f 332/36 316/44 314/35
f 289/36 314/35 316/44
f 314/35 289/36 282/36
f 282/36 289/36 274/36
f 278/31 274/36 289/36
f 274/36 278/31 275/36
f 275/36 278/31 242/31
f 212/31 242/31 278/31
f 242/31 212/31 222/31
f 185/31 222/31 212/31
f 222/31 185/31 194/36
f 341/31 337/31 387/31
f 386/31 387/31 337/31
f 387/31 386/31 425/31
f 431/31 425/31 386/31
f 425/31 431/31 458/31
f 445/36 458/31 431/31
f 458/31 445/36 459/33
f 459/33 445/36 456/36
f 438/47 456/36 445/36
f 456/36 438/47 409/31
f 344/31 409/31 438/47
f 409/31 344/31 343/31
f 343/31 344/31 332/36
f 312/35 274/36 279/36
f 313/35 274/36 312/35
f 274/36 313/35 282/36
f 315/35 282/36 313/35
f 282/36 315/35 314/35
f 339/36 314/35 315/35
f 314/35 339/36 332/36
f 347/36 332/36 339/36
f 332/36 347/36 343/31
f 346/36 343/31 347/36
f 379/31 343/31 346/36
f 343/31 379/31 409/31
f 399/31 409/31 379/31
f 409/31 399/31 436/31
f 313/35 339/36 315/35
f 339/36 313/35 347/36
f 312/35 347/36 313/35
f 342/36 347/36 312/35
f 347/36 342/36 346/36
f 346/36 342/36 308/35
f 309/35 308/35 342/36
f 279/36 308/35 309/35
f 308/35 279/36 275/36
f 275/36 279/36 274/36
f 309/35 310/35 279/36
f 342/36 310/35 309/35
f 312/35 310/35 342/36
f 310/35 312/35 279/36
f 428/36 436/31 399/31
f 436/31 428/36 440/31
f 421/31 440/31 428/36
f 423/33 440/31 421/31
f 440/31 423/33 441/32
f 443/32 441/32 423/33
f 451/31 441/32 443/32
f 465/31 441/32 451/31
f 462/32 441/32 465/31
f 446/31 441/32 462/32
f 441/32 446/31 440/31
f 456/36 440/31 446/31
f 440/31 456/36 436/31
f 409/31 436/31 456/36
f 297/48 229/49 216/50
f 229/49 297/48 258/51
f 258/51 297/48 296/52
f 296/52 297/48 367/51
f 367/51 297/48 393/53
f 405/54 393/53 297/48
f 205/55 297/48 473/56
f 477/57 297/48 473/56
f 297/48 477/57 487/58
f 482/59 487/58 477/57
f 494/60 487/58 489/59
f 487/58 494/60 297/48
f 498/61 297/48 494/60
f 416/62 498/61 297/48
f 217/63 206/64 298/65
f 417/64 406/63 298/65
f 362/66 357/66 361/66
f 378/67 382/68 383/66
f 471/30 449/30 454/30
f 449/30 471/30 469/30
f 470/30 460/30 463/30
f 460/30 470/30 468/30
f 467/30 461/30 464/30
f 461/30 467/30 466/30
f 475/69 476/69 472/69
f 476/69 475/69 481/69
f 481/69 475/69 480/69
f 474/69 480/69 475/69
f 480/69 474/69 479/69
f 478/69 479/69 474/69
f 483/69 479/69 478/69
f 479/69 483/69 484/69
f 484/69 483/69 491/69
f 492/69 491/69 483/69
f 496/69 491/69 492/69
f 491/69 496/69 490/69
f 495/69 490/69 496/69
f 490/69 495/69 488/69
f 488/69 495/69 493/69
f 497/69 493/69 495/69
f 485/69 486/69 481/69
f 486/69 485/69 488/69
f 488/69 485/69 490/69
f 490/69 485/69 491/69
f 491/69 485/69 484/69
f 484/69 485/69 479/69
f 479/69 485/69 480/69
f 481/69 480/69 485/69
f 530/70 536/70 531/71
f 536/70 530/70 533/70
f 537/72 538/73 534/74
f 538/73 537/72 541/73
f 535/75 539/76 532/70
f 539/76 535/75 540/75
f 573/73 577/72 576/73
f 580/74 576/73 577/72
f 574/75 579/75 575/76
f 582/70 575/76 579/75
f 581/70 584/70 578/70
f 583/71 578/70 584/70
f 142/32 132/39 131/33
f 143/31 132/39 142/32
f 132/39 143/31 135/35
f 146/37 135/35 143/31
f 148/31 135/35 146/37
f 135/35 148/31 137/39
f 149/32 137/39 148/31
f 137/39 149/32 138/33
f 138/33 149/32 136/31
f 147/47 136/31 149/32
f 145/44 136/31 147/47
f 136/31 145/44 134/44
f 134/44 145/44 133/31
f 144/47 133/31 145/44
f 142/32 133/31 144/47
f 133/31 142/32 131/33
f 181/31 194/36 185/31
f 194/36 181/31 201/31
f 201/31 181/31 198/33
f 180/32 198/33 181/31
f 198/33 180/32 178/32
f 178/32 180/32 170/31
f 170/31 180/32 156/31
f 156/31 180/32 159/32
f 159/32 180/32 175/31
f 181/31 175/31 180/32
f 175/31 181/31 165/36
f 185/31 165/36 181/31
f 165/36 185/31 212/31
f 188/69 186/69 195/69
f 186/69 188/69 200/69
f 200/69 188/69 193/69
f 193/69 188/69 213/69
f 195/69 213/69 188/69
f 213/69 195/69 214/69
f 214/69 195/69 203/69
f 192/69 203/69 195/69
f 204/69 203/69 192/69
f 252/69 213/69 214/69
f 213/69 252/69 251/69
f 403/69 373/69 408/69
f 365/69 373/69 403/69
f 304/69 373/69 365/69
f 303/69 373/69 304/69
f 373/69 303/69 372/69
f 372/69 303/69 301/69
f 301/69 303/69 252/69
f 252/69 303/69 251/69
f 304/69 251/69 303/69
f 259/69 251/69 304/69
f 218/69 251/69 259/69
f 251/69 218/69 213/69
f 193/69 213/69 218/69
f 218/69 223/69 193/69
f 223/69 218/69 241/69
f 259/69 241/69 218/69
f 241/69 259/69 276/69
f 276/69 259/69 307/69
f 304/69 307/69 259/69
f 365/69 307/69 304/69
f 307/69 365/69 345/69
f 345/69 365/69 380/69
f 403/69 380/69 365/69
f 380/69 403/69 398/69
f 398/69 403/69 427/69
f 408/69 427/69 403/69
f 433/69 427/69 408/69
f 427/69 433/69 420/69
f 420/69 433/69 435/69
f 435/69 433/69 426/69
f 408/69 426/69 433/69
f 426/69 408/69 407/69
f 407/69 408/69 372/69
f 372/69 408/69 373/69
f 415/69 418/69 404/69
f 429/69 418/69 415/69
f 426/69 418/69 429/69
f 407/69 418/69 426/69
f 418/69 407/69 400/69
f 400/69 407/69 371/69
f 372/69 371/69 407/69
f 371/69 372/69 300/69
f 301/69 300/69 372/69
f 252/69 300/69 301/69
f 300/69 252/69 253/69
f 214/69 253/69 252/69
f 253/69 214/69 221/69
f 203/69 221/69 214/69
f 215/69 203/69 204/69
f 228/69 203/69 215/69
f 203/69 228/69 221/69
f 257/69 221/69 228/69
f 221/69 257/69 253/69
f 295/69 253/69 257/69
f 253/69 295/69 300/69
f 300/69 295/69 371/69
f 366/69 371/69 295/69
f 371/69 366/69 400/69
f 392/69 400/69 366/69
f 400/69 392/69 418/69
f 404/69 418/69 392/69
f 334/77 360/66 356/66
f 335/77 360/66 334/77
f 336/77 360/66 335/77
f 360/66 336/77 363/66
f 363/66 336/77 356/66
f 356/66 336/77 334/77
f 294/78 334/77 336/77
f 293/78 334/77 294/78
f 334/77 293/78 335/77
f 292/78 335/77 293/78
f 335/77 292/78 336/77
f 336/77 292/78 294/78
f 271/79 294/78 292/78
f 272/80 294/78 271/79
f 294/78 272/80 293/78
f 273/80 293/78 272/80
f 293/78 273/80 292/78
f 292/78 273/80 271/79
f 271/79 273/80 244/77
f 244/77 273/80 243/77
f 272/80 243/77 273/80
f 271/79 243/77 272/80
f 243/77 271/79 240/77
f 244/77 240/77 271/79
f 233/81 240/77 244/77
f 235/81 240/77 233/81
f 240/77 235/81 243/77
f 243/77 235/81 244/77
f 236/81 244/77 235/81
f 244/77 236/81 233/81
f 235/81 233/81 236/81
f 377/67 349/80 381/68
f 349/80 377/67 348/78
f 348/78 377/67 350/78
f 384/66 350/78 377/67
f 381/68 350/78 384/66
f 349/80 350/78 381/68
f 350/78 349/80 327/78
f 327/78 349/80 328/78
f 348/78 328/78 349/80
f 328/78 348/78 329/66
f 350/78 329/66 348/78
f 327/78 329/66 350/78
f 329/66 327/78 285/78
f 285/78 327/78 287/78
f 328/78 287/78 327/78
f 287/78 328/78 286/78
f 329/66 286/78 328/78
f 285/78 286/78 329/66
f 262/78 286/78 285/78
f 286/78 262/78 287/78
f 264/78 287/78 262/78
f 287/78 264/78 285/78
f 261/78 285/78 264/78
f 285/78 261/78 262/78
f 246/77 262/78 261/78
f 262/78 246/77 264/78
f 249/77 264/78 246/77
f 264/78 249/77 245/77
f 246/77 245/77 249/77
f 261/78 245/77 246/77
f 245/77 261/78 264/78
f 514/82 518/83 516/82
f 515/84 518/83 514/82
f 518/83 515/84 521/85
f 520/85 521/85 515/84
f 521/85 520/85 526/86
f 525/86 526/86 520/85
f 529/86 526/86 525/86
f 526/86 529/86 528/86
f 527/86 528/86 529/86
f 528/86 527/86 524/86
f 522/85 524/86 527/86
f 524/86 522/85 523/85
f 523/85 522/85 519/83
f 517/87 519/83 522/85
f 519/83 517/87 516/82
f 516/82 517/87 514/82
f 508/87 514/82 517/87
f 506/82 514/82 508/87
f 514/82 506/82 515/84
f 507/88 515/84 506/82
f 509/85 515/84 507/88
f 515/84 509/85 520/85
f 520/85 509/85 525/86
f 511/86 525/86 509/85
f 513/86 525/86 511/86
f 525/86 513/86 529/86
f 512/86 529/86 513/86
f 529/86 512/86 527/86
f 510/85 527/86 512/86
f 527/86 510/85 522/85
f 522/85 510/85 517/87
f 517/87 510/85 508/87
f 508/87 510/85 501/89
f 512/86 501/89 510/85
f 501/89 512/86 504/89
f 513/86 504/89 512/86
f 504/89 513/86 505/90
f 511/86 505/90 513/86
f 505/90 511/86 503/91
f 509/85 503/91 511/86
f 507/88 503/91 509/85
f 503/91 507/88 500/88
f 506/82 500/88 507/88
f 500/88 506/82 502/86
f 508/87 502/86 506/82
f 501/89 502/86 508/87
f 502/86 501/89 499/89
f 504/89 499/89 501/89
f 505/90 499/89 504/89
f 503/91 499/89 505/90
f 500/88 499/89 503/91
f 499/89 500/88 502/86
f 543/86 547/86 544/86
f 544/86 547/86 549/85
f 548/85 549/85 547/86
f 552/83 549/85 548/85
f 549/85 552/83 554/87
f 555/82 554/87 552/83
f 554/87 555/82 557/82
f 553/83 557/82 555/82
f 557/82 553/83 556/84
f 550/85 556/84 553/83
f 556/84 550/85 551/85
f 545/86 551/85 550/85
f 551/85 545/86 546/86
f 546/86 545/86 542/86
f 543/86 542/86 545/86
f 544/86 542/86 543/86
f 542/86 544/86 559/86
f 559/86 544/86 561/85
f 549/85 561/85 544/86
f 554/87 561/85 549/85
f 561/85 554/87 563/87
f 557/82 563/87 554/87
f 563/87 557/82 565/82
f 556/84 565/82 557/82
f 565/82 556/84 564/88
f 564/88 556/84 562/85
f 551/85 562/85 556/84
f 546/86 562/85 551/85
f 562/85 546/86 560/86
f 560/86 546/86 558/86
f 542/86 558/86 546/86
f 559/86 558/86 542/86
f 558/86 559/86 567/89
f 567/89 559/86 570/89
f 561/85 570/89 559/86
f 563/87 570/89 561/85
f 570/89 563/87 569/86
f 565/82 569/86 563/87
f 569/86 565/82 571/88
f 564/88 571/88 565/82
f 571/88 564/88 568/91
f 562/85 568/91 564/88
f 560/86 568/91 562/85
f 568/91 560/86 566/90
f 558/86 566/90 560/86
f 567/89 566/90 558/86
f 566/90 567/89 572/89
f 570/89 572/89 567/89
f 569/86 572/89 570/89
f 571/88 572/89 569/86
f 568/91 572/89 571/88
f 572/89 568/91 566/90
f 610/1 608/2 614/1
f 608/2 610/1 619/1
f 632/7 633/92 645/8
f 633/92 632/7 620/93
f 618/92 620/93 632/7
f 609/8 620/93 618/92
f 620/93 609/8 606/94
f 606/94 609/8 615/95
f 613/96 615/95 609/8
f 615/95 613/96 628/97
f 627/97 628/97 613/96
f 636/8 628/97 627/97
f 628/97 636/8 645/8
f 655/92 656/7 684/8
f 668/93 656/7 655/92
f 656/7 668/93 669/92
f 669/92 668/93 678/8
f 682/94 678/8 668/93
f 673/95 678/8 682/94
f 678/8 673/95 674/96
f 660/97 674/96 673/95
f 674/96 660/97 661/97
f 661/97 660/97 652/8
f 684/8 652/8 660/97
f 679/1 681/2 670/1
f 681/2 679/1 675/1
f 734/98 739/99 746/100
f 739/99 734/98 731/101
f 737/100 731/101 734/98
f 731/101 737/100 729/102
f 729/102 737/100 741/103
f 744/104 741/103 737/100
f 741/103 744/104 751/99
f 758/98 751/99 744/104
f 764/104 751/99 758/98
f 751/99 764/104 767/103
f 771/100 767/103 764/104
f 767/103 771/100 779/102
f 779/102 771/100 777/101
f 774/98 777/101 771/100
f 777/101 774/98 769/99
f 762/100 769/99 774/98
f 605/8 617/5 621/4
f 617/5 605/8 607/8
f 616/95 607/8 605/8
f 607/8 616/95 612/96
f 612/96 616/95 626/97
f 629/95 626/97 616/95
f 626/97 629/95 635/8
f 637/105 635/8 629/95
f 635/8 637/105 631/3
f 631/3 637/105 634/6
f 630/106 634/6 637/105
f 622/107 634/6 630/106
f 634/6 622/107 621/4
f 621/4 622/107 605/8
f 605/8 622/107 601/108
f 630/106 601/108 622/107
f 601/108 630/106 603/109
f 603/109 630/106 604/110
f 637/105 604/110 630/106
f 604/110 637/105 596/111
f 596/111 637/105 602/95
f 629/95 602/95 637/105
f 602/95 629/95 600/95
f 616/95 600/95 629/95
f 605/8 600/95 616/95
f 594/112 600/95 605/8
f 600/95 594/112 602/95
f 602/95 594/112 596/111
f 592/112 596/111 594/112
f 597/113 596/111 592/112
f 596/111 597/113 604/110
f 599/114 604/110 597/113
f 598/115 604/110 599/114
f 604/110 598/115 603/109
f 603/109 598/115 601/108
f 595/116 601/108 598/115
f 593/117 601/108 595/116
f 591/114 601/108 593/117
f 601/108 591/114 605/8
f 605/8 591/114 594/112
f 594/112 591/114 592/112
f 592/112 591/114 590/112
f 590/112 591/114 683/8
f 683/8 591/114 649/108
f 593/117 649/108 591/114
f 649/108 593/117 589/116
f 589/116 593/117 708/118
f 595/116 708/118 593/117
f 708/118 595/116 714/119
f 598/115 714/119 595/116
f 714/119 598/115 719/119
f 599/114 719/119 598/115
f 719/119 599/114 725/120
f 725/120 599/114 720/121
f 597/113 720/121 599/114
f 720/121 597/113 709/122
f 592/112 709/122 597/113
f 587/113 709/122 592/112
f 709/122 587/113 699/121
f 585/114 699/121 587/113
f 699/121 585/114 694/120
f 694/120 585/114 700/119
f 586/115 700/119 585/114
f 700/119 586/115 705/119
f 589/116 705/119 586/115
f 705/119 589/116 708/118
f 586/115 649/108 589/116
f 649/108 586/115 647/109
f 647/109 586/115 646/110
f 585/114 646/110 586/115
f 587/113 646/110 585/114
f 646/110 587/113 588/111
f 592/112 588/111 587/113
f 588/111 592/112 590/112
f 662/97 672/95 676/96
f 672/95 662/97 659/95
f 653/8 659/95 662/97
f 651/105 659/95 653/8
f 648/95 659/95 651/105
f 650/95 659/95 648/95
f 659/95 650/95 672/95
f 672/95 650/95 683/8
f 683/8 650/95 590/112
f 648/95 590/112 650/95
f 590/112 648/95 588/111
f 651/105 588/111 648/95
f 588/111 651/105 646/110
f 658/106 646/110 651/105
f 646/110 658/106 647/109
f 647/109 658/106 649/108
f 666/107 649/108 658/106
f 649/108 666/107 683/8
f 657/3 651/105 653/8
f 654/6 651/105 657/3
f 651/105 654/6 658/106
f 658/106 654/6 666/107
f 667/4 666/107 654/6
f 666/107 667/4 683/8
f 671/5 683/8 667/4
f 680/8 683/8 671/5
f 683/8 680/8 672/95
f 676/96 672/95 680/8
f 611/9 638/11 640/18
f 638/11 611/9 639/15
f 639/15 611/9 641/15
f 623/14 641/15 611/9
f 625/9 641/15 623/14
f 641/15 625/9 642/15
f 642/15 625/9 643/9
f 643/9 625/9 644/22
f 644/22 625/9 624/24
f 623/14 624/24 625/9
f 611/9 624/24 623/14
f 624/24 611/9 640/18
f 689/23 677/18 664/24
f 690/17 677/18 689/23
f 692/11 677/18 690/17
f 691/9 677/18 692/11
f 677/18 691/9 664/24
f 664/24 691/9 665/14
f 688/15 665/14 691/9
f 665/14 688/15 663/9
f 687/15 663/9 688/15
f 686/9 663/9 687/15
f 685/22 663/9 686/9
f 664/24 663/9 685/22
f 663/9 664/24 665/14
f 697/123 701/123 693/124
f 701/123 697/123 711/125
f 707/125 711/125 697/123
f 722/123 711/125 707/125
f 711/125 722/123 718/123
f 726/124 718/123 722/123
f 718/123 726/124 724/126
f 724/126 726/124 717/126
f 721/29 717/126 726/124
f 717/126 721/29 710/127
f 706/128 710/127 721/29
f 698/29 710/127 706/128
f 710/127 698/29 702/126
f 693/124 702/126 698/29
f 702/126 693/124 695/126
f 701/123 695/126 693/124
f 695/126 701/123 704/123
f 704/123 701/123 713/129
f 711/125 713/129 701/123
f 718/123 713/129 711/125
f 713/129 718/123 715/123
f 724/126 715/123 718/123
f 715/123 724/126 723/126
f 717/126 723/126 724/126
f 723/126 717/126 716/29
f 716/29 717/126 712/130
f 710/127 712/130 717/126
f 702/126 712/130 710/127
f 712/130 702/126 703/29
f 703/29 702/126 696/126
f 695/126 696/126 702/126
f 704/123 696/126 695/126
f 696/126 704/123 728/28
f 728/28 704/123 750/131
f 713/129 750/131 704/123
f 715/123 750/131 713/129
f 750/131 715/123 780/28
f 723/126 780/28 715/123
f 780/28 723/126 781/27
f 716/29 781/27 723/126
f 781/27 716/29 778/126
f 712/130 778/126 716/29
f 778/126 712/130 749/28
f 749/28 712/130 730/126
f 703/29 730/126 712/130
f 730/126 703/29 727/27
f 696/126 727/27 703/29
f 728/28 727/27 696/126
f 727/27 728/28 740/28
f 750/131 740/28 728/28
f 740/28 750/131 753/28
f 753/28 750/131 768/28
f 780/28 768/28 750/131
f 768/28 780/28 781/27
f 732/29 730/126 727/27
f 742/127 730/126 732/29
f 730/126 742/127 749/28
f 755/28 749/28 742/127
f 766/127 749/28 755/28
f 749/28 766/127 778/126
f 776/29 778/126 766/127
f 778/126 776/29 781/27
f 747/126 740/28 753/28
f 733/28 740/28 747/126
f 740/28 733/28 732/29
f 736/130 732/29 733/28
f 732/29 736/130 742/127
f 743/29 742/127 736/130
f 756/127 742/127 743/29
f 742/127 756/127 755/28
f 768/28 761/126 753/28
f 761/126 768/28 775/28
f 776/29 775/28 768/28
f 775/28 776/29 772/130
f 766/127 772/130 776/29
f 772/130 766/127 765/29
f 765/29 766/127 759/127
f 755/28 759/127 766/127
f 748/126 754/130 735/28
f 752/28 754/130 748/126
f 760/126 754/130 752/28
f 773/28 754/130 760/126
f 770/130 754/130 773/28
f 763/29 754/130 770/130
f 757/127 754/130 763/29
f 745/29 754/130 757/127
f 738/130 754/130 745/29
f 754/130 738/130 735/28
f 803/31 783/31 782/32
f 809/132 783/31 803/31
f 783/31 809/132 786/37
f 786/37 809/132 788/31
f 814/31 788/31 809/132
f 788/31 814/31 789/32
f 818/31 789/32 814/31
f 816/36 789/32 818/31
f 789/32 816/36 787/47
f 812/31 787/47 816/36
f 787/47 812/31 785/44
f 808/44 785/44 812/31
f 806/31 785/44 808/44
f 785/44 806/31 784/47
f 802/36 784/47 806/31
f 784/47 802/36 782/32
f 799/31 782/32 802/36
f 782/32 799/31 803/31
f 800/31 803/31 799/31
f 804/34 803/31 800/31
f 803/31 804/34 809/132
f 810/35 809/132 804/34
f 813/34 809/132 810/35
f 809/132 813/34 814/31
f 817/31 814/31 813/34
f 814/31 817/31 818/31
f 821/32 818/31 817/31
f 820/32 818/31 821/32
f 818/31 820/32 816/36
f 799/31 796/32 800/31
f 796/32 799/31 798/32
f 802/36 798/32 799/31
f 793/69 790/69 792/69
f 791/69 790/69 793/69
f 794/69 790/69 791/69
f 797/69 790/69 794/69
f 828/69 790/69 797/69
f 790/69 828/69 792/69
f 792/69 828/69 795/69
f 795/69 828/69 829/69
f 829/69 828/69 831/69
f 831/69 828/69 830/69
f 797/69 830/69 828/69
f 801/69 830/69 797/69
f 830/69 801/69 832/69
f 805/69 832/69 801/69
f 832/69 805/69 833/69
f 807/69 833/69 805/69
f 811/69 833/69 807/69
f 833/69 811/69 834/69
f 815/69 834/69 811/69
f 834/69 815/69 836/69
f 819/69 836/69 815/69
f 838/69 836/69 819/69
f 836/69 838/69 835/69
f 835/69 838/69 837/69
f 837/69 838/69 822/69
f 822/69 838/69 825/69
f 827/69 825/69 838/69
f 825/69 827/69 824/69
f 824/69 827/69 826/69
f 826/69 827/69 823/69
f 823/69 827/69 819/69
f 838/69 819/69 827/69
f 839/75 847/133 841/134
f 840/134 847/133 839/75
f 847/133 840/134 849/135
f 842/70 849/135 840/134
f 849/135 842/70 857/135
f 845/136 857/135 842/70
f 857/135 845/136 851/72
f 846/137 851/72 845/136
f 851/72 846/137 852/72
f 852/72 846/137 850/133
f 844/74 850/133 846/137
f 850/133 844/74 854/135
f 843/71 854/135 844/74
f 854/135 843/71 848/135
f 841/134 848/135 843/71
f 847/133 848/135 841/134
f 848/135 847/133 855/133
f 849/135 855/133 847/133
f 855/133 849/135 856/135
f 857/135 856/135 849/135
f 860/135 856/135 857/135
f 861/133 856/135 860/135
f 856/135 861/133 855/133
f 859/135 855/133 861/133
f 853/135 855/133 859/135
f 855/133 853/135 848/135
f 848/135 853/135 854/135
f 859/135 854/135 853/135
f 854/135 859/135 869/134
f 861/133 869/134 859/135
f 869/134 861/133 871/138
f 860/135 871/138 861/133
f 871/138 860/135 870/134
f 857/135 870/134 860/135
f 870/134 857/135 867/70
f 867/70 857/135 866/139
f 866/139 857/135 863/133
f 873/140 866/139 902/76
f 866/139 873/140 867/70
f 875/137 867/70 873/140
f 877/70 867/70 875/137
f 867/70 877/70 870/134
f 878/75 870/134 877/70
f 870/134 878/75 871/138
f 876/75 871/138 878/75
f 871/138 876/75 869/134
f 868/70 869/134 876/75
f 869/134 868/70 854/135
f 854/135 868/70 865/141
f 872/140 865/141 868/70
f 888/70 875/137 883/142
f 875/137 888/70 877/70
f 851/72 863/133 857/135
f 863/133 851/72 862/133
f 852/72 862/133 851/72
f 862/133 852/72 858/133
f 850/133 858/133 852/72
f 854/135 858/133 850/133
f 865/141 858/133 854/135
f 858/133 865/141 862/133
f 864/143 862/133 865/141
f 862/133 864/143 863/133
f 863/133 864/143 866/139
f 902/76 866/139 864/143
f 901/71 865/141 872/140
f 865/141 901/71 864/143
f 864/143 901/71 902/76
f 902/76 901/71 903/75
f 872/140 903/75 901/71
f 905/144 903/75 872/140
f 903/75 905/144 906/144
f 872/140 906/144 905/144
f 873/140 906/144 872/140
f 904/75 906/144 873/140
f 906/144 904/75 903/75
f 903/75 904/75 902/76
f 873/140 902/76 904/75
f 873/140 884/142 875/137
f 884/142 873/140 880/71
f 880/71 873/140 879/71
f 872/140 879/71 873/140
f 879/71 872/140 881/74
f 881/74 872/140 874/136
f 868/70 874/136 872/140
f 876/75 874/136 868/70
f 882/70 874/136 876/75
f 874/136 882/70 881/74
f 884/142 892/70 881/74
f 892/70 884/142 895/70
f 895/70 884/142 889/71
f 880/71 889/71 884/142
f 889/71 880/71 886/70
f 879/71 886/70 880/71
f 881/74 886/70 879/71
f 886/70 881/74 892/70
f 893/74 881/74 882/70
f 881/74 893/74 883/142
f 897/73 883/142 893/74
f 900/73 883/142 897/73
f 883/142 900/73 888/70
f 896/72 888/70 900/73
f 888/70 896/72 882/70
f 893/74 882/70 896/72
f 898/76 887/70 882/70
f 899/75 887/70 898/76
f 890/134 887/70 899/75
f 887/70 890/134 877/70
f 877/70 890/134 878/75
f 885/134 878/75 890/134
f 878/75 885/134 876/75
f 876/75 885/134 882/70
f 894/75 882/70 885/134
f 891/70 882/70 894/75
f 882/70 891/70 898/76
f 885/134 899/75 894/75
f 899/75 885/134 890/134
f 913/137 914/136 908/72
f 908/72 914/136 927/135
f 917/70 927/135 914/136
f 927/135 917/70 910/135
f 919/134 910/135 917/70
f 910/135 919/134 912/133
f 920/75 912/133 919/134
f 918/134 912/133 920/75
f 912/133 918/134 911/135
f 916/71 911/135 918/134
f 911/135 916/71 930/135
f 915/74 930/135 916/71
f 945/140 937/139 936/70
f 927/135 936/70 937/139
f 936/70 927/135 933/134
f 933/134 927/135 924/135
f 924/135 927/135 928/135
f 910/135 928/135 927/135
f 928/135 910/135 929/133
f 912/133 929/133 910/135
f 911/135 929/133 912/133
f 929/133 911/135 931/135
f 930/135 931/135 911/135
f 925/135 931/135 930/135
f 931/135 925/135 929/133
f 923/133 929/133 925/135
f 929/133 923/133 928/135
f 928/135 923/133 924/135
f 932/138 924/135 923/133
f 924/135 932/138 933/134
f 940/75 933/134 932/138
f 941/70 933/134 940/75
f 933/134 941/70 936/70
f 943/137 936/70 941/70
f 936/70 943/137 945/140
f 963/142 945/140 943/137
f 945/140 963/142 967/71
f 958/71 967/71 963/142
f 961/70 967/71 958/71
f 968/71 967/71 961/70
f 967/71 968/71 945/140
f 945/140 968/71 946/140
f 946/140 968/71 966/74
f 961/70 966/74 968/71
f 955/70 966/74 961/70
f 966/74 955/70 963/142
f 952/70 963/142 955/70
f 963/142 952/70 958/71
f 945/140 946/140 969/144
f 969/144 946/140 970/144
f 972/75 970/144 946/140
f 970/144 972/75 969/144
f 971/75 969/144 972/75
f 969/144 971/75 945/140
f 945/140 971/75 973/76
f 972/75 973/76 971/75
f 973/76 972/75 974/71
f 946/140 974/71 972/75
f 922/133 926/133 907/72
f 907/72 926/133 909/133
f 909/133 926/133 930/135
f 938/141 930/135 926/133
f 930/135 938/141 935/70
f 935/70 938/141 946/140
f 946/140 938/141 974/71
f 939/143 974/71 938/141
f 974/71 939/143 973/76
f 937/139 973/76 939/143
f 973/76 937/139 945/140
f 930/135 915/74 909/133
f 913/137 909/133 915/74
f 909/133 913/137 907/72
f 908/72 907/72 913/137
f 907/72 908/72 922/133
f 922/133 908/72 921/133
f 927/135 921/133 908/72
f 937/139 921/133 927/135
f 939/143 921/133 937/139
f 921/133 939/143 922/133
f 938/141 922/133 939/143
f 926/133 922/133 938/141
f 957/134 940/75 962/134
f 942/75 962/134 940/75
f 962/134 942/75 965/70
f 944/136 965/70 942/75
f 965/70 944/136 966/74
f 966/74 944/136 946/140
f 946/140 944/136 935/70
f 942/75 935/70 944/136
f 934/134 935/70 942/75
f 935/70 934/134 930/135
f 930/135 934/134 925/135
f 925/135 934/134 923/133
f 923/133 934/134 932/138
f 942/75 932/138 934/134
f 932/138 942/75 940/75
f 948/75 949/76 960/70
f 960/70 949/76 965/70
f 956/70 965/70 949/76
f 953/75 965/70 956/70
f 965/70 953/75 962/134
f 948/75 962/134 953/75
f 962/134 948/75 957/134
f 960/70 957/134 948/75
f 941/70 957/134 960/70
f 940/75 957/134 941/70
f 947/73 950/73 964/142
f 954/74 964/142 950/73
f 964/142 954/74 966/74
f 966/74 954/74 965/70
f 951/72 965/70 954/74
f 965/70 951/72 959/70
f 947/73 959/70 951/72
f 964/142 959/70 947/73
f 943/137 959/70 964/142
f 959/70 943/137 941/70
f 976/145 975/146 977/147
f 975/146 976/145 979/148
f 979/148 976/145 978/149
f 977/147 978/149 976/145
f 978/149 977/147 980/150
f 985/151 980/150 977/147
f 980/150 985/151 986/152
f 995/153 986/152 985/151
f 986/152 995/153 989/154
f 989/154 995/153 992/155
f 1000/156 992/155 995/153
f 992/155 1000/156 997/157
f 992/158 991/159 989/160
f 983/161 989/160 991/159
f 989/154 983/162 986/152
f 986/152 983/162 980/150
f 980/150 983/162 982/163
f 991/159 982/164 983/161
f 982/163 978/149 980/150
f 978/149 982/163 984/165
f 991/159 984/166 982/164
f 984/166 991/159 990/167
f 990/167 991/159 993/168
f 993/168 991/159 996/169
f 996/169 991/159 999/170
f 999/170 991/159 997/171
f 997/171 991/159 992/158
f 997/157 1000/156 999/172
f 1004/173 999/172 1000/156
f 999/172 1004/173 996/174
f 996/174 1004/173 1001/175
f 1002/176 1001/175 1004/173
f 1001/175 1002/176 994/177
f 998/178 994/177 1002/176
f 994/177 998/178 988/179
f 987/180 988/179 998/178
f 988/179 987/180 981/181
f 979/148 981/181 987/180
f 978/149 981/181 979/148
f 984/165 981/181 978/149
f 981/181 984/165 988/179
f 990/182 988/179 984/165
f 988/179 990/182 994/177
f 993/183 994/177 990/182
f 996/174 994/177 993/183
f 994/177 996/174 1001/175
f 1006/184 1005/185 1003/186
f 1013/187 1005/185 1006/184
f 1005/185 1013/187 1009/188
f 1019/189 1009/188 1013/187
f 1009/188 1019/189 1020/190
f 1026/191 1020/190 1019/189
f 1020/190 1026/191 1028/192
f 1029/193 1028/192 1026/191
f 1031/194 1028/192 1029/193
f 1028/192 1031/194 1032/195
f 1032/195 1031/194 1030/196
f 1029/193 1030/196 1031/194
f 1027/197 1030/196 1029/193
f 1030/196 1027/197 1022/198
f 1021/199 1022/198 1027/197
f 1022/198 1021/199 1012/200
f 1018/201 1012/200 1021/199
f 1015/202 1012/200 1018/201
f 1012/200 1015/202 1007/203
f 1010/204 1007/203 1015/202
f 1008/205 1007/203 1010/204
f 1007/203 1008/205 1003/186
f 1011/206 1003/186 1008/205
f 1003/186 1011/206 1006/184
f 1006/184 1011/206 1013/187
f 1014/207 1013/187 1011/206
f 1017/208 1013/187 1014/207
f 1013/187 1017/208 1019/189
f 1023/209 1019/189 1017/208
f 1019/189 1023/209 1026/191
f 1026/191 1023/209 1029/193
f 1025/210 1029/193 1023/209
f 1029/193 1025/210 1027/197
f 1024/211 1027/197 1025/210
f 1027/197 1024/211 1021/199
f 1021/199 1024/211 1018/201
f 1016/212 1018/213 1024/214
f 1018/213 1016/212 1015/215
f 1015/215 1016/212 1010/216
f 1010/216 1016/212 1008/217
f 1008/217 1016/212 1011/218
f 1011/218 1016/212 1014/219
f 1014/219 1016/212 1017/220
f 1017/220 1016/212 1023/221
f 1023/221 1016/212 1025/222
f 1024/214 1025/222 1016/212
