# Blender 4.2.2 LTS
# www.blender.org
o Utah_Teapot
v 0.000000 2.100000 -1.500000
v -0.225000 1.987500 -1.550000
v 0.000000 1.875000 -1.600000
v 0.000000 2.043750 -2.625000
v -0.225000 1.945313 -2.518750
v 0.000000 1.846875 -2.412500
v 0.000000 1.650000 -3.000000
v -0.225000 1.650000 -2.850000
v 0.000000 1.650000 -2.700000
v 0.225000 1.987500 -1.550000
v 0.225000 1.945313 -2.518750
v 0.225000 1.650000 -2.850000
v 0.000000 1.007812 -2.731250
v -0.225000 1.103906 -2.634375
v 0.000000 1.200000 -2.537500
v 0.000000 0.450000 -1.900000
v -0.225000 0.600000 -1.950000
v 0.000000 0.750000 -2.000000
v 0.225000 1.103906 -2.634375
v 0.225000 0.600000 -1.950000
v -0.000000 2.250000 2.800000
v -0.112500 2.250000 3.000000
v -0.000000 2.250000 3.200000
v -0.000000 2.306250 2.825000
v -0.150000 2.316797 3.126563
v -0.000000 2.327344 3.428125
v -0.000000 2.250000 2.700000
v -0.187500 2.250000 3.000000
v -0.000000 2.250000 3.300000
v 0.112500 2.250000 3.000000
v 0.150000 2.316797 3.126563
v 0.187500 2.250000 3.000000
v -0.000000 1.650000 2.387500
v -0.341250 1.471875 2.537500
v -0.000000 1.293750 2.687500
v -0.000000 1.275000 1.700000
v -0.495000 0.862500 1.700000
v -0.000000 0.450000 1.700000
v 0.341250 1.471875 2.537500
v 0.495000 0.862500 1.700000
v 0.000000 3.000000 0.000000
v 0.000000 2.831250 -0.325000
v -0.231031 2.831250 -0.231031
v -0.325000 2.831250 -0.000000
v 0.000000 2.550000 -0.200000
v -0.142000 2.550000 -0.142000
v -0.200000 2.550000 -0.000000
v -0.231031 2.831250 0.231031
v -0.000000 2.831250 0.325000
v -0.142000 2.550000 0.142000
v -0.000000 2.550000 0.200000
v 0.325000 2.831250 0.000000
v 0.231031 2.831250 0.231031
v 0.200000 2.550000 0.000000
v 0.142000 2.550000 0.142000
v 0.231031 2.831250 -0.231031
v 0.142000 2.550000 -0.142000
v 0.000000 2.400000 -0.825000
v -0.585750 2.400000 -0.585750
v -0.825000 2.400000 -0.000000
v 0.000000 2.250000 -1.400000
v -0.994000 2.250000 -0.994000
v -1.400000 2.250000 -0.000000
v -0.585750 2.400000 0.585750
v -0.000000 2.400000 0.825000
v -0.994000 2.250000 0.994000
v -0.000000 2.250000 1.400000
v 0.825000 2.400000 0.000000
v 0.585750 2.400000 0.585750
v 1.400000 2.250000 0.000000
v 0.994000 2.250000 0.994000
v 0.585750 2.400000 -0.585750
v 0.994000 2.250000 -0.994000
v 0.000000 2.348438 -1.403125
v -0.996219 2.348438 -0.996219
v -1.403125 2.348438 -0.000000
v 0.000000 2.250000 -1.500000
v -1.065000 2.250000 -1.065000
v -1.500000 2.250000 -0.000000
v -0.996219 2.348438 0.996219
v -0.000000 2.348438 1.403125
v -1.065000 2.250000 1.065000
v -0.000000 2.250000 1.500000
v 1.403125 2.348438 0.000000
v 0.996219 2.348438 0.996219
v 1.500000 2.250000 0.000000
v 1.065000 2.250000 1.065000
v 0.996219 2.348438 -0.996219
v 1.065000 2.250000 -1.065000
v 0.000000 1.471875 -1.843750
v -1.309063 1.471875 -1.309063
v -1.843750 1.471875 -0.000000
v 0.000000 0.750000 -2.000000
v -1.420000 0.750000 -1.420000
v -2.000000 0.750000 -0.000000
v -1.309063 1.471875 1.309063
v -0.000000 1.471875 1.843750
v -1.420000 0.750000 1.420000
v -0.000000 0.750000 2.000000
v 1.843750 1.471875 0.000000
v 1.309063 1.471875 1.309063
v 2.000000 0.750000 0.000000
v 1.420000 0.750000 1.420000
v 1.309063 1.471875 -1.309063
v 1.420000 0.750000 -1.420000
v 0.000000 0.234375 -1.750000
v -1.242500 0.234375 -1.242500
v -1.750000 0.234375 -0.000000
v 0.000000 0.000000 -1.500000
v -1.065000 0.000000 -1.065000
v -1.500000 0.000000 -0.000000
v -1.242500 0.234375 1.242500
v -0.000000 0.234375 1.750000
v -1.065000 0.000000 1.065000
v -0.000000 0.000000 1.500000
v 1.750000 0.234375 0.000000
v 1.242500 0.234375 1.242500
v 1.500000 0.000000 0.000000
v 1.065000 0.000000 1.065000
v 1.242500 0.234375 -1.242500
v 1.065000 0.000000 -1.065000
s 0
f 2 1 4
f 4 5 2
f 3 2 5
f 5 6 3
f 5 4 7
f 7 8 5
f 6 5 8
f 8 9 6
f 4 1 10
f 10 11 4
f 11 10 3
f 3 6 11
f 7 4 11
f 11 12 7
f 12 11 6
f 6 9 12
f 8 7 13
f 13 14 8
f 9 8 14
f 14 15 9
f 14 13 16
f 16 17 14
f 15 14 17
f 17 18 15
f 13 7 12
f 12 19 13
f 19 12 9
f 9 15 19
f 16 13 19
f 19 20 16
f 20 19 15
f 15 18 20
f 22 21 24
f 24 25 22
f 23 22 25
f 25 26 23
f 25 24 27
f 27 28 25
f 26 25 28
f 28 29 26
f 24 21 30
f 30 31 24
f 31 30 23
f 23 26 31
f 27 24 31
f 31 32 27
f 32 31 26
f 26 29 32
f 28 27 33
f 33 34 28
f 29 28 34
f 34 35 29
f 34 33 36
f 36 37 34
f 35 34 37
f 37 38 35
f 33 27 32
f 32 39 33
f 39 32 29
f 29 35 39
f 36 33 39
f 39 40 36
f 40 39 35
f 35 38 40
f 41 42 43
f 41 43 44
f 43 42 45
f 45 46 43
f 44 43 46
f 46 47 44
f 41 44 48
f 41 48 49
f 48 44 47
f 47 50 48
f 49 48 50
f 50 51 49
f 52 41 53
f 53 41 49
f 54 52 53
f 53 55 54
f 55 53 49
f 49 51 55
f 42 41 56
f 56 41 52
f 45 42 56
f 56 57 45
f 57 56 52
f 52 54 57
f 46 45 58
f 58 59 46
f 47 46 59
f 59 60 47
f 59 58 61
f 61 62 59
f 60 59 62
f 62 63 60
f 50 47 60
f 60 64 50
f 51 50 64
f 64 65 51
f 64 60 63
f 63 66 64
f 65 64 66
f 66 67 65
f 68 54 55
f 55 69 68
f 69 55 51
f 51 65 69
f 70 68 69
f 69 71 70
f 71 69 65
f 65 67 71
f 58 45 57
f 57 72 58
f 72 57 54
f 54 68 72
f 61 58 72
f 72 73 61
f 73 72 68
f 68 70 73
f 62 61 74
f 74 75 62
f 63 62 75
f 75 76 63
f 75 74 77
f 77 78 75
f 76 75 78
f 78 79 76
f 66 63 76
f 76 80 66
f 67 66 80
f 80 81 67
f 80 76 79
f 79 82 80
f 81 80 82
f 82 83 81
f 84 70 71
f 71 85 84
f 85 71 67
f 67 81 85
f 86 84 85
f 85 87 86
f 87 85 81
f 81 83 87
f 74 61 73
f 73 88 74
f 88 73 70
f 70 84 88
f 77 74 88
f 88 89 77
f 89 88 84
f 84 86 89
f 78 77 90
f 90 91 78
f 79 78 91
f 91 92 79
f 91 90 93
f 93 94 91
f 92 91 94
f 94 95 92
f 82 79 92
f 92 96 82
f 83 82 96
f 96 97 83
f 96 92 95
f 95 98 96
f 97 96 98
f 98 99 97
f 100 86 87
f 87 101 100
f 101 87 83
f 83 97 101
f 102 100 101
f 101 103 102
f 103 101 97
f 97 99 103
f 90 77 89
f 89 104 90
f 104 89 86
f 86 100 104
f 93 90 104
f 104 105 93
f 105 104 100
f 100 102 105
f 94 93 106
f 106 107 94
f 95 94 107
f 107 108 95
f 107 106 109
f 109 110 107
f 108 107 110
f 110 111 108
f 98 95 108
f 108 112 98
f 99 98 112
f 112 113 99
f 112 108 111
f 111 114 112
f 113 112 114
f 114 115 113
f 116 102 103
f 103 117 116
f 117 103 99
f 99 113 117
f 118 116 117
f 117 119 118
f 119 117 113
f 113 115 119
f 106 93 105
f 105 120 106
f 120 105 102
f 102 116 120
f 109 106 120
f 120 121 109
f 121 120 116
f 116 118 121
f 119 114 110
f 110 109 121
f 121 118 119
f 119 115 114
f 114 111 110
f 110 121 119
